<mxfile host="Electron" modified="2024-07-04T18:26:03.886Z" agent="Mozilla/5.0 (Windows NT 10.0; Win64; x64) AppleWebKit/537.36 (KHTML, like Gecko) draw.io/24.6.4 Chrome/124.0.6367.207 Electron/30.0.6 Safari/537.36" etag="1Tuj7mr_KkOG-7P_0qbM" version="24.6.4" type="device" pages="6">
  <diagram name="Pin/Bin Checkout" id="uZ3NVUOjxYlBFijIKfpW">
    <mxGraphModel dx="1434" dy="844" grid="1" gridSize="10" guides="1" tooltips="1" connect="1" arrows="1" fold="1" page="1" pageScale="1" pageWidth="1100" pageHeight="850" math="0" shadow="0">
      <root>
        <mxCell id="0" />
        <mxCell id="1" parent="0" />
        <mxCell id="2W_Y2GHJ8rr36_tPeWFa-5" value="Opens Pin &#xa;Checkout Form" style="group" parent="1" vertex="1" connectable="0">
          <mxGeometry x="180" y="90" width="120" height="110" as="geometry" />
        </mxCell>
        <mxCell id="2W_Y2GHJ8rr36_tPeWFa-2" value="Opens Pin&lt;div&gt;Checkout Form&lt;/div&gt;" style="rounded=0;whiteSpace=wrap;html=1;" parent="2W_Y2GHJ8rr36_tPeWFa-5" vertex="1">
          <mxGeometry width="120" height="60" as="geometry" />
        </mxCell>
        <mxCell id="2W_Y2GHJ8rr36_tPeWFa-3" value="&lt;font style=&quot;font-size: 10px;&quot;&gt;Operator&lt;/font&gt;" style="rounded=0;whiteSpace=wrap;html=1;" parent="2W_Y2GHJ8rr36_tPeWFa-5" vertex="1">
          <mxGeometry y="60" width="120" height="20" as="geometry" />
        </mxCell>
        <mxCell id="2W_Y2GHJ8rr36_tPeWFa-4" value="" style="rounded=0;whiteSpace=wrap;html=1;" parent="2W_Y2GHJ8rr36_tPeWFa-5" vertex="1">
          <mxGeometry y="80" width="120" height="30" as="geometry" />
        </mxCell>
        <mxCell id="2W_Y2GHJ8rr36_tPeWFa-6" value="" style="endArrow=classic;html=1;rounded=0;" parent="1" edge="1">
          <mxGeometry relative="1" as="geometry">
            <mxPoint x="60" y="140" as="sourcePoint" />
            <mxPoint x="160" y="140" as="targetPoint" />
          </mxGeometry>
        </mxCell>
        <mxCell id="2W_Y2GHJ8rr36_tPeWFa-9" value="Operator Needs to&amp;nbsp;&lt;div&gt;Check out pin(s)&lt;/div&gt;" style="edgeLabel;html=1;align=center;verticalAlign=middle;resizable=0;points=[];" parent="2W_Y2GHJ8rr36_tPeWFa-6" vertex="1" connectable="0">
          <mxGeometry x="-0.02" y="5" relative="1" as="geometry">
            <mxPoint y="-25" as="offset" />
          </mxGeometry>
        </mxCell>
        <mxCell id="2W_Y2GHJ8rr36_tPeWFa-11" value="" style="endArrow=classic;html=1;rounded=0;" parent="1" edge="1">
          <mxGeometry relative="1" as="geometry">
            <mxPoint x="310" y="144.5" as="sourcePoint" />
            <mxPoint x="410" y="144.5" as="targetPoint" />
          </mxGeometry>
        </mxCell>
        <mxCell id="2W_Y2GHJ8rr36_tPeWFa-12" value="Pin Checkout Form&lt;div&gt;Is Displayed&lt;/div&gt;" style="edgeLabel;html=1;align=center;verticalAlign=middle;resizable=0;points=[];" parent="2W_Y2GHJ8rr36_tPeWFa-11" vertex="1" connectable="0">
          <mxGeometry x="-0.02" y="5" relative="1" as="geometry">
            <mxPoint y="-25" as="offset" />
          </mxGeometry>
        </mxCell>
        <mxCell id="2W_Y2GHJ8rr36_tPeWFa-13" value="" style="group" parent="1" vertex="1" connectable="0">
          <mxGeometry x="430" y="90" width="120" height="110" as="geometry" />
        </mxCell>
        <mxCell id="2W_Y2GHJ8rr36_tPeWFa-14" value="Operator Fills&lt;div&gt;Out Information&lt;/div&gt;" style="rounded=0;whiteSpace=wrap;html=1;" parent="2W_Y2GHJ8rr36_tPeWFa-13" vertex="1">
          <mxGeometry width="120" height="60" as="geometry" />
        </mxCell>
        <mxCell id="2W_Y2GHJ8rr36_tPeWFa-15" value="&lt;font style=&quot;font-size: 10px;&quot;&gt;Operator&lt;/font&gt;" style="rounded=0;whiteSpace=wrap;html=1;" parent="2W_Y2GHJ8rr36_tPeWFa-13" vertex="1">
          <mxGeometry y="60" width="120" height="20" as="geometry" />
        </mxCell>
        <mxCell id="2W_Y2GHJ8rr36_tPeWFa-16" value="" style="rounded=0;whiteSpace=wrap;html=1;" parent="2W_Y2GHJ8rr36_tPeWFa-13" vertex="1">
          <mxGeometry y="80" width="120" height="30" as="geometry" />
        </mxCell>
        <mxCell id="2W_Y2GHJ8rr36_tPeWFa-17" value="" style="endArrow=classic;html=1;rounded=0;" parent="1" edge="1">
          <mxGeometry relative="1" as="geometry">
            <mxPoint x="560" y="144.5" as="sourcePoint" />
            <mxPoint x="660" y="144.5" as="targetPoint" />
          </mxGeometry>
        </mxCell>
        <mxCell id="2W_Y2GHJ8rr36_tPeWFa-18" value="Data Sent to DB" style="edgeLabel;html=1;align=center;verticalAlign=middle;resizable=0;points=[];" parent="2W_Y2GHJ8rr36_tPeWFa-17" vertex="1" connectable="0">
          <mxGeometry x="-0.02" y="5" relative="1" as="geometry">
            <mxPoint y="-25" as="offset" />
          </mxGeometry>
        </mxCell>
        <mxCell id="2W_Y2GHJ8rr36_tPeWFa-19" value="" style="group" parent="1" vertex="1" connectable="0">
          <mxGeometry x="920" y="90" width="120" height="110" as="geometry" />
        </mxCell>
        <mxCell id="TTMbpFBJtK54ZYuqHgXP-11" style="edgeStyle=orthogonalEdgeStyle;rounded=0;orthogonalLoop=1;jettySize=auto;html=1;exitX=1;exitY=0.75;exitDx=0;exitDy=0;" parent="2W_Y2GHJ8rr36_tPeWFa-19" source="2W_Y2GHJ8rr36_tPeWFa-20" edge="1">
          <mxGeometry relative="1" as="geometry">
            <mxPoint x="-740" y="200" as="targetPoint" />
            <Array as="points">
              <mxPoint x="140" y="45" />
              <mxPoint x="140" y="130" />
              <mxPoint x="-860" y="130" />
              <mxPoint x="-860" y="200" />
            </Array>
          </mxGeometry>
        </mxCell>
        <mxCell id="2W_Y2GHJ8rr36_tPeWFa-20" value="Receipt is Printed" style="rounded=0;whiteSpace=wrap;html=1;" parent="2W_Y2GHJ8rr36_tPeWFa-19" vertex="1">
          <mxGeometry width="120" height="60" as="geometry" />
        </mxCell>
        <mxCell id="2W_Y2GHJ8rr36_tPeWFa-21" value="&lt;font style=&quot;font-size: 10px;&quot;&gt;Gage Checkout System&lt;/font&gt;" style="rounded=0;whiteSpace=wrap;html=1;" parent="2W_Y2GHJ8rr36_tPeWFa-19" vertex="1">
          <mxGeometry y="60" width="120" height="20" as="geometry" />
        </mxCell>
        <mxCell id="2W_Y2GHJ8rr36_tPeWFa-22" value="" style="rounded=0;whiteSpace=wrap;html=1;" parent="2W_Y2GHJ8rr36_tPeWFa-19" vertex="1">
          <mxGeometry y="80" width="120" height="30" as="geometry" />
        </mxCell>
        <mxCell id="2W_Y2GHJ8rr36_tPeWFa-23" value="" style="group" parent="1" vertex="1" connectable="0">
          <mxGeometry x="180" y="220" width="120" height="110" as="geometry" />
        </mxCell>
        <mxCell id="2W_Y2GHJ8rr36_tPeWFa-24" value="User puts receipt in&amp;nbsp;&lt;div&gt;bag along with&lt;/div&gt;&lt;div&gt;pins&lt;/div&gt;" style="rounded=0;whiteSpace=wrap;html=1;" parent="2W_Y2GHJ8rr36_tPeWFa-23" vertex="1">
          <mxGeometry y="10" width="120" height="60" as="geometry" />
        </mxCell>
        <mxCell id="2W_Y2GHJ8rr36_tPeWFa-25" value="&lt;font style=&quot;font-size: 10px;&quot;&gt;Operator&lt;/font&gt;" style="rounded=0;whiteSpace=wrap;html=1;" parent="2W_Y2GHJ8rr36_tPeWFa-23" vertex="1">
          <mxGeometry y="60" width="120" height="20" as="geometry" />
        </mxCell>
        <mxCell id="2W_Y2GHJ8rr36_tPeWFa-26" value="" style="rounded=0;whiteSpace=wrap;html=1;" parent="2W_Y2GHJ8rr36_tPeWFa-23" vertex="1">
          <mxGeometry y="80" width="120" height="30" as="geometry" />
        </mxCell>
        <mxCell id="2W_Y2GHJ8rr36_tPeWFa-50" value="" style="endArrow=classic;html=1;rounded=0;" parent="1" edge="1">
          <mxGeometry relative="1" as="geometry">
            <mxPoint x="800" y="134.58000000000004" as="sourcePoint" />
            <mxPoint x="900" y="134.58000000000004" as="targetPoint" />
          </mxGeometry>
        </mxCell>
        <mxCell id="2W_Y2GHJ8rr36_tPeWFa-51" value="Data is Valid" style="edgeLabel;html=1;align=center;verticalAlign=middle;resizable=0;points=[];" parent="2W_Y2GHJ8rr36_tPeWFa-50" vertex="1" connectable="0">
          <mxGeometry x="-0.02" y="5" relative="1" as="geometry">
            <mxPoint y="-25" as="offset" />
          </mxGeometry>
        </mxCell>
        <mxCell id="2W_Y2GHJ8rr36_tPeWFa-56" value="Pin Checkout Process" style="text;strokeColor=none;fillColor=none;html=1;fontSize=24;fontStyle=1;verticalAlign=middle;align=center;" parent="1" vertex="1">
          <mxGeometry x="470" y="30" width="100" height="40" as="geometry" />
        </mxCell>
        <mxCell id="2BdmX1yChseta3UQ8iqk-1" value="Opens Pin &#xa;Checkout Form" style="group" parent="1" vertex="1" connectable="0">
          <mxGeometry x="190" y="440" width="120" height="110" as="geometry" />
        </mxCell>
        <mxCell id="2BdmX1yChseta3UQ8iqk-2" value="Opens Bin&lt;div&gt;Checkout Form&lt;/div&gt;" style="rounded=0;whiteSpace=wrap;html=1;" parent="2BdmX1yChseta3UQ8iqk-1" vertex="1">
          <mxGeometry width="120" height="60" as="geometry" />
        </mxCell>
        <mxCell id="2BdmX1yChseta3UQ8iqk-3" value="&lt;font style=&quot;font-size: 10px;&quot;&gt;Operator&lt;/font&gt;" style="rounded=0;whiteSpace=wrap;html=1;" parent="2BdmX1yChseta3UQ8iqk-1" vertex="1">
          <mxGeometry y="60" width="120" height="20" as="geometry" />
        </mxCell>
        <mxCell id="2BdmX1yChseta3UQ8iqk-4" value="" style="rounded=0;whiteSpace=wrap;html=1;" parent="2BdmX1yChseta3UQ8iqk-1" vertex="1">
          <mxGeometry y="80" width="120" height="30" as="geometry" />
        </mxCell>
        <mxCell id="2BdmX1yChseta3UQ8iqk-5" value="" style="endArrow=classic;html=1;rounded=0;" parent="1" edge="1">
          <mxGeometry relative="1" as="geometry">
            <mxPoint x="70" y="490" as="sourcePoint" />
            <mxPoint x="170" y="490" as="targetPoint" />
          </mxGeometry>
        </mxCell>
        <mxCell id="2BdmX1yChseta3UQ8iqk-6" value="Operator Needs to&amp;nbsp;&lt;div&gt;Check out bin&lt;/div&gt;" style="edgeLabel;html=1;align=center;verticalAlign=middle;resizable=0;points=[];" parent="2BdmX1yChseta3UQ8iqk-5" vertex="1" connectable="0">
          <mxGeometry x="-0.02" y="5" relative="1" as="geometry">
            <mxPoint y="-25" as="offset" />
          </mxGeometry>
        </mxCell>
        <mxCell id="2BdmX1yChseta3UQ8iqk-7" value="" style="endArrow=classic;html=1;rounded=0;" parent="1" edge="1">
          <mxGeometry relative="1" as="geometry">
            <mxPoint x="320" y="494.5" as="sourcePoint" />
            <mxPoint x="420" y="494.5" as="targetPoint" />
          </mxGeometry>
        </mxCell>
        <mxCell id="2BdmX1yChseta3UQ8iqk-8" value="Bin Checkout Form&lt;div&gt;Is Displayed&lt;/div&gt;" style="edgeLabel;html=1;align=center;verticalAlign=middle;resizable=0;points=[];" parent="2BdmX1yChseta3UQ8iqk-7" vertex="1" connectable="0">
          <mxGeometry x="-0.02" y="5" relative="1" as="geometry">
            <mxPoint y="-25" as="offset" />
          </mxGeometry>
        </mxCell>
        <mxCell id="2BdmX1yChseta3UQ8iqk-9" value="" style="group" parent="1" vertex="1" connectable="0">
          <mxGeometry x="440" y="440" width="120" height="110" as="geometry" />
        </mxCell>
        <mxCell id="2BdmX1yChseta3UQ8iqk-10" value="Operator Fills&lt;div&gt;Out Information&lt;/div&gt;" style="rounded=0;whiteSpace=wrap;html=1;" parent="2BdmX1yChseta3UQ8iqk-9" vertex="1">
          <mxGeometry width="120" height="60" as="geometry" />
        </mxCell>
        <mxCell id="2BdmX1yChseta3UQ8iqk-11" value="&lt;font style=&quot;font-size: 10px;&quot;&gt;Operator&lt;/font&gt;" style="rounded=0;whiteSpace=wrap;html=1;" parent="2BdmX1yChseta3UQ8iqk-9" vertex="1">
          <mxGeometry y="60" width="120" height="20" as="geometry" />
        </mxCell>
        <mxCell id="2BdmX1yChseta3UQ8iqk-12" value="" style="rounded=0;whiteSpace=wrap;html=1;" parent="2BdmX1yChseta3UQ8iqk-9" vertex="1">
          <mxGeometry y="80" width="120" height="30" as="geometry" />
        </mxCell>
        <mxCell id="2BdmX1yChseta3UQ8iqk-13" value="" style="endArrow=classic;html=1;rounded=0;" parent="1" edge="1">
          <mxGeometry relative="1" as="geometry">
            <mxPoint x="570" y="494.5" as="sourcePoint" />
            <mxPoint x="670" y="494.5" as="targetPoint" />
          </mxGeometry>
        </mxCell>
        <mxCell id="2BdmX1yChseta3UQ8iqk-14" value="Data Sent to DB" style="edgeLabel;html=1;align=center;verticalAlign=middle;resizable=0;points=[];" parent="2BdmX1yChseta3UQ8iqk-13" vertex="1" connectable="0">
          <mxGeometry x="-0.02" y="5" relative="1" as="geometry">
            <mxPoint y="-25" as="offset" />
          </mxGeometry>
        </mxCell>
        <mxCell id="2BdmX1yChseta3UQ8iqk-15" value="" style="group" parent="1" vertex="1" connectable="0">
          <mxGeometry x="880" y="440" width="120" height="110" as="geometry" />
        </mxCell>
        <mxCell id="2BdmX1yChseta3UQ8iqk-16" value="Receipt is Printed" style="rounded=0;whiteSpace=wrap;html=1;" parent="2BdmX1yChseta3UQ8iqk-15" vertex="1">
          <mxGeometry width="120" height="60" as="geometry" />
        </mxCell>
        <mxCell id="2BdmX1yChseta3UQ8iqk-17" value="&lt;font style=&quot;font-size: 10px;&quot;&gt;Gage Checkout System&lt;/font&gt;" style="rounded=0;whiteSpace=wrap;html=1;" parent="2BdmX1yChseta3UQ8iqk-15" vertex="1">
          <mxGeometry y="60" width="120" height="20" as="geometry" />
        </mxCell>
        <mxCell id="2BdmX1yChseta3UQ8iqk-18" value="" style="rounded=0;whiteSpace=wrap;html=1;" parent="2BdmX1yChseta3UQ8iqk-15" vertex="1">
          <mxGeometry y="80" width="120" height="30" as="geometry" />
        </mxCell>
        <mxCell id="2BdmX1yChseta3UQ8iqk-19" value="" style="group" parent="1" vertex="1" connectable="0">
          <mxGeometry x="190" y="620" width="120" height="110" as="geometry" />
        </mxCell>
        <mxCell id="2BdmX1yChseta3UQ8iqk-20" value="User puts receipt in&amp;nbsp;&lt;div&gt;with the bin&lt;/div&gt;" style="rounded=0;whiteSpace=wrap;html=1;" parent="2BdmX1yChseta3UQ8iqk-19" vertex="1">
          <mxGeometry width="120" height="60" as="geometry" />
        </mxCell>
        <mxCell id="2BdmX1yChseta3UQ8iqk-21" value="&lt;font style=&quot;font-size: 10px;&quot;&gt;Operator&lt;/font&gt;" style="rounded=0;whiteSpace=wrap;html=1;" parent="2BdmX1yChseta3UQ8iqk-19" vertex="1">
          <mxGeometry y="60" width="120" height="20" as="geometry" />
        </mxCell>
        <mxCell id="2BdmX1yChseta3UQ8iqk-22" value="" style="rounded=0;whiteSpace=wrap;html=1;" parent="2BdmX1yChseta3UQ8iqk-19" vertex="1">
          <mxGeometry y="80" width="120" height="30" as="geometry" />
        </mxCell>
        <mxCell id="2BdmX1yChseta3UQ8iqk-29" value="" style="endArrow=classic;html=1;rounded=0;" parent="1" edge="1">
          <mxGeometry relative="1" as="geometry">
            <mxPoint x="810" y="484.58000000000004" as="sourcePoint" />
            <mxPoint x="870" y="485" as="targetPoint" />
          </mxGeometry>
        </mxCell>
        <mxCell id="2BdmX1yChseta3UQ8iqk-30" value="Data is Valid" style="edgeLabel;html=1;align=center;verticalAlign=middle;resizable=0;points=[];" parent="2BdmX1yChseta3UQ8iqk-29" vertex="1" connectable="0">
          <mxGeometry x="-0.02" y="5" relative="1" as="geometry">
            <mxPoint y="-25" as="offset" />
          </mxGeometry>
        </mxCell>
        <mxCell id="2BdmX1yChseta3UQ8iqk-31" value="Bin Checkout Process" style="text;strokeColor=none;fillColor=none;html=1;fontSize=24;fontStyle=1;verticalAlign=middle;align=center;" parent="1" vertex="1">
          <mxGeometry x="480" y="380" width="100" height="40" as="geometry" />
        </mxCell>
        <mxCell id="CciE09T4YCXYYTYWJdPg-7" value="" style="group" parent="1" vertex="1" connectable="0">
          <mxGeometry x="680" y="440" width="120" height="150" as="geometry" />
        </mxCell>
        <mxCell id="CciE09T4YCXYYTYWJdPg-8" value="Validate Data" style="rounded=0;whiteSpace=wrap;html=1;" parent="CciE09T4YCXYYTYWJdPg-7" vertex="1">
          <mxGeometry width="120" height="60" as="geometry" />
        </mxCell>
        <mxCell id="CciE09T4YCXYYTYWJdPg-9" value="&lt;font style=&quot;font-size: 10px;&quot;&gt;Gage Checkout System&lt;/font&gt;" style="rounded=0;whiteSpace=wrap;html=1;" parent="CciE09T4YCXYYTYWJdPg-7" vertex="1">
          <mxGeometry y="60.1957894736842" width="120" height="29.605263157894736" as="geometry" />
        </mxCell>
        <mxCell id="CciE09T4YCXYYTYWJdPg-10" value="" style="rounded=0;whiteSpace=wrap;html=1;" parent="CciE09T4YCXYYTYWJdPg-7" vertex="1">
          <mxGeometry y="90.00105263157894" width="120" height="29.605263157894736" as="geometry" />
        </mxCell>
        <mxCell id="CciE09T4YCXYYTYWJdPg-11" value="" style="verticalLabelPosition=bottom;verticalAlign=top;html=1;shape=mxgraph.basic.orthogonal_triangle;rotation=90;fillColor=#d5e8d4;strokeColor=#82b366;" parent="CciE09T4YCXYYTYWJdPg-7" vertex="1">
          <mxGeometry y="1.9736842105263157" width="27.01" height="25.351973684210527" as="geometry" />
        </mxCell>
        <mxCell id="CciE09T4YCXYYTYWJdPg-12" value="2" style="text;html=1;align=center;verticalAlign=middle;resizable=0;points=[];autosize=1;strokeColor=none;fillColor=none;" parent="CciE09T4YCXYYTYWJdPg-7" vertex="1">
          <mxGeometry x="-8" y="-5.240131578947314" width="30" height="30" as="geometry" />
        </mxCell>
        <mxCell id="TTMbpFBJtK54ZYuqHgXP-1" style="edgeStyle=orthogonalEdgeStyle;rounded=0;orthogonalLoop=1;jettySize=auto;html=1;exitX=1;exitY=0;exitDx=0;exitDy=0;entryX=0;entryY=0;entryDx=0;entryDy=0;" parent="1" source="2BdmX1yChseta3UQ8iqk-17" target="2BdmX1yChseta3UQ8iqk-21" edge="1">
          <mxGeometry relative="1" as="geometry">
            <mxPoint x="30" y="630" as="targetPoint" />
            <Array as="points">
              <mxPoint x="1050" y="500" />
              <mxPoint x="1050" y="590" />
              <mxPoint x="90" y="590" />
              <mxPoint x="90" y="680" />
            </Array>
          </mxGeometry>
        </mxCell>
        <mxCell id="TTMbpFBJtK54ZYuqHgXP-2" value="&lt;span style=&quot;background-color: rgb(251, 251, 251);&quot;&gt;&lt;font style=&quot;font-size: 11px;&quot;&gt;Receipt Is Printed&lt;/font&gt;&lt;/span&gt;" style="edgeLabel;html=1;align=center;verticalAlign=middle;resizable=0;points=[];" parent="1" vertex="1" connectable="0">
          <mxGeometry x="140" y="650" as="geometry" />
        </mxCell>
        <mxCell id="TTMbpFBJtK54ZYuqHgXP-5" value="" style="group" parent="1" vertex="1" connectable="0">
          <mxGeometry x="672" y="90" width="120" height="120" as="geometry" />
        </mxCell>
        <mxCell id="TTMbpFBJtK54ZYuqHgXP-6" value="Validate Data" style="rounded=0;whiteSpace=wrap;html=1;" parent="TTMbpFBJtK54ZYuqHgXP-5" vertex="1">
          <mxGeometry width="120" height="71.05263157894737" as="geometry" />
        </mxCell>
        <mxCell id="TTMbpFBJtK54ZYuqHgXP-7" value="&lt;span style=&quot;font-size: 10px;&quot;&gt;Gage Checkout System&lt;/span&gt;" style="rounded=0;whiteSpace=wrap;html=1;" parent="TTMbpFBJtK54ZYuqHgXP-5" vertex="1">
          <mxGeometry y="71.05263157894737" width="120" height="23.68421052631579" as="geometry" />
        </mxCell>
        <mxCell id="TTMbpFBJtK54ZYuqHgXP-8" value="" style="rounded=0;whiteSpace=wrap;html=1;" parent="TTMbpFBJtK54ZYuqHgXP-5" vertex="1">
          <mxGeometry y="94.73684210526316" width="120" height="23.68421052631579" as="geometry" />
        </mxCell>
        <mxCell id="TTMbpFBJtK54ZYuqHgXP-9" value="" style="verticalLabelPosition=bottom;verticalAlign=top;html=1;shape=mxgraph.basic.orthogonal_triangle;rotation=90;fillColor=#d5e8d4;strokeColor=#82b366;" parent="TTMbpFBJtK54ZYuqHgXP-5" vertex="1">
          <mxGeometry x="-3" y="4.578947368421053" width="27.01" height="20.281578947368423" as="geometry" />
        </mxCell>
        <mxCell id="TTMbpFBJtK54ZYuqHgXP-10" value="3" style="text;html=1;align=center;verticalAlign=middle;resizable=0;points=[];autosize=1;strokeColor=none;fillColor=none;" parent="TTMbpFBJtK54ZYuqHgXP-5" vertex="1">
          <mxGeometry x="-8" y="-4.192105263157852" width="30" height="30" as="geometry" />
        </mxCell>
        <mxCell id="TTMbpFBJtK54ZYuqHgXP-12" value="&lt;span style=&quot;background-color: rgb(251, 251, 251);&quot;&gt;&lt;font style=&quot;font-size: 11px;&quot;&gt;Receipt Is Printed&lt;/font&gt;&lt;/span&gt;" style="edgeLabel;html=1;align=center;verticalAlign=middle;resizable=0;points=[];" parent="1" vertex="1" connectable="0">
          <mxGeometry x="120" y="260" as="geometry" />
        </mxCell>
      </root>
    </mxGraphModel>
  </diagram>
  <diagram id="42XrPNIQRpifWU-LpHLD" name="Thread Gage Checkout">
    <mxGraphModel dx="1195" dy="703" grid="1" gridSize="10" guides="1" tooltips="1" connect="1" arrows="1" fold="1" page="1" pageScale="1" pageWidth="1100" pageHeight="850" math="0" shadow="0">
      <root>
        <mxCell id="0" />
        <mxCell id="1" parent="0" />
        <mxCell id="4boxyq-SklZZd-zCNQBX-1" value="Opens Pin &#xa;Checkout Form" style="group" parent="1" vertex="1" connectable="0">
          <mxGeometry x="180" y="100" width="120" height="110" as="geometry" />
        </mxCell>
        <mxCell id="4boxyq-SklZZd-zCNQBX-2" value="Opens Thread Gage&lt;div&gt;Checkout Form&lt;/div&gt;" style="rounded=0;whiteSpace=wrap;html=1;" parent="4boxyq-SklZZd-zCNQBX-1" vertex="1">
          <mxGeometry width="120" height="60" as="geometry" />
        </mxCell>
        <mxCell id="4boxyq-SklZZd-zCNQBX-3" value="&lt;font style=&quot;font-size: 10px;&quot;&gt;Operator&lt;/font&gt;" style="rounded=0;whiteSpace=wrap;html=1;" parent="4boxyq-SklZZd-zCNQBX-1" vertex="1">
          <mxGeometry y="60" width="120" height="20" as="geometry" />
        </mxCell>
        <mxCell id="4boxyq-SklZZd-zCNQBX-4" value="" style="rounded=0;whiteSpace=wrap;html=1;" parent="4boxyq-SklZZd-zCNQBX-1" vertex="1">
          <mxGeometry y="80" width="120" height="30" as="geometry" />
        </mxCell>
        <mxCell id="4boxyq-SklZZd-zCNQBX-5" value="" style="endArrow=classic;html=1;rounded=0;" parent="1" edge="1">
          <mxGeometry relative="1" as="geometry">
            <mxPoint x="60" y="150" as="sourcePoint" />
            <mxPoint x="160" y="150" as="targetPoint" />
          </mxGeometry>
        </mxCell>
        <mxCell id="4boxyq-SklZZd-zCNQBX-6" value="Operator Needs to&amp;nbsp;&lt;div&gt;Check out Thread Gage&lt;/div&gt;" style="edgeLabel;html=1;align=center;verticalAlign=middle;resizable=0;points=[];" parent="4boxyq-SklZZd-zCNQBX-5" vertex="1" connectable="0">
          <mxGeometry x="-0.02" y="5" relative="1" as="geometry">
            <mxPoint y="-25" as="offset" />
          </mxGeometry>
        </mxCell>
        <mxCell id="4boxyq-SklZZd-zCNQBX-7" value="" style="endArrow=classic;html=1;rounded=0;" parent="1" edge="1">
          <mxGeometry relative="1" as="geometry">
            <mxPoint x="310" y="154.5" as="sourcePoint" />
            <mxPoint x="410" y="154.5" as="targetPoint" />
          </mxGeometry>
        </mxCell>
        <mxCell id="4boxyq-SklZZd-zCNQBX-8" value="Thread Gage&amp;nbsp;&lt;div&gt;Checkout Form&lt;div&gt;Is Displayed&lt;/div&gt;&lt;/div&gt;" style="edgeLabel;html=1;align=center;verticalAlign=middle;resizable=0;points=[];" parent="4boxyq-SklZZd-zCNQBX-7" vertex="1" connectable="0">
          <mxGeometry x="-0.02" y="5" relative="1" as="geometry">
            <mxPoint y="-25" as="offset" />
          </mxGeometry>
        </mxCell>
        <mxCell id="4boxyq-SklZZd-zCNQBX-9" value="" style="group" parent="1" vertex="1" connectable="0">
          <mxGeometry x="430" y="100" width="120" height="110" as="geometry" />
        </mxCell>
        <mxCell id="4boxyq-SklZZd-zCNQBX-10" value="Operator Fills&lt;div&gt;Out Information&lt;/div&gt;" style="rounded=0;whiteSpace=wrap;html=1;" parent="4boxyq-SklZZd-zCNQBX-9" vertex="1">
          <mxGeometry width="120" height="60" as="geometry" />
        </mxCell>
        <mxCell id="4boxyq-SklZZd-zCNQBX-11" value="&lt;font style=&quot;font-size: 10px;&quot;&gt;Operator&lt;/font&gt;" style="rounded=0;whiteSpace=wrap;html=1;" parent="4boxyq-SklZZd-zCNQBX-9" vertex="1">
          <mxGeometry y="60" width="120" height="20" as="geometry" />
        </mxCell>
        <mxCell id="4boxyq-SklZZd-zCNQBX-12" value="" style="rounded=0;whiteSpace=wrap;html=1;" parent="4boxyq-SklZZd-zCNQBX-9" vertex="1">
          <mxGeometry y="80" width="120" height="30" as="geometry" />
        </mxCell>
        <mxCell id="4boxyq-SklZZd-zCNQBX-13" value="" style="endArrow=classic;html=1;rounded=0;" parent="1" edge="1">
          <mxGeometry relative="1" as="geometry">
            <mxPoint x="560" y="154.5" as="sourcePoint" />
            <mxPoint x="660" y="154.5" as="targetPoint" />
          </mxGeometry>
        </mxCell>
        <mxCell id="4boxyq-SklZZd-zCNQBX-14" value="Data Sent to DB" style="edgeLabel;html=1;align=center;verticalAlign=middle;resizable=0;points=[];" parent="4boxyq-SklZZd-zCNQBX-13" vertex="1" connectable="0">
          <mxGeometry x="-0.02" y="5" relative="1" as="geometry">
            <mxPoint y="-25" as="offset" />
          </mxGeometry>
        </mxCell>
        <mxCell id="4boxyq-SklZZd-zCNQBX-15" value="" style="group" parent="1" vertex="1" connectable="0">
          <mxGeometry x="880" y="100" width="120" height="110" as="geometry" />
        </mxCell>
        <mxCell id="6R6sxgmKPg6imtCZPmux-2" style="edgeStyle=orthogonalEdgeStyle;rounded=0;orthogonalLoop=1;jettySize=auto;html=1;exitX=1;exitY=0.5;exitDx=0;exitDy=0;" edge="1" parent="4boxyq-SklZZd-zCNQBX-15" source="4boxyq-SklZZd-zCNQBX-16">
          <mxGeometry relative="1" as="geometry">
            <mxPoint x="-700" y="230" as="targetPoint" />
            <Array as="points">
              <mxPoint x="140" y="30" />
              <mxPoint x="140" y="145" />
              <mxPoint x="-820" y="145" />
              <mxPoint x="-820" y="230" />
            </Array>
          </mxGeometry>
        </mxCell>
        <mxCell id="4boxyq-SklZZd-zCNQBX-16" value="Print Receipt" style="rounded=0;whiteSpace=wrap;html=1;" parent="4boxyq-SklZZd-zCNQBX-15" vertex="1">
          <mxGeometry width="120" height="60" as="geometry" />
        </mxCell>
        <mxCell id="4boxyq-SklZZd-zCNQBX-17" value="&lt;font style=&quot;font-size: 10px;&quot;&gt;Gage Checkout System&lt;/font&gt;" style="rounded=0;whiteSpace=wrap;html=1;" parent="4boxyq-SklZZd-zCNQBX-15" vertex="1">
          <mxGeometry y="60" width="120" height="20" as="geometry" />
        </mxCell>
        <mxCell id="4boxyq-SklZZd-zCNQBX-18" value="" style="rounded=0;whiteSpace=wrap;html=1;" parent="4boxyq-SklZZd-zCNQBX-15" vertex="1">
          <mxGeometry y="80" width="120" height="30" as="geometry" />
        </mxCell>
        <mxCell id="4boxyq-SklZZd-zCNQBX-19" value="" style="group" parent="1" vertex="1" connectable="0">
          <mxGeometry x="180" y="280" width="120" height="110" as="geometry" />
        </mxCell>
        <mxCell id="4boxyq-SklZZd-zCNQBX-20" value="User puts receipt in&amp;nbsp;&lt;div&gt;a bag along with&lt;/div&gt;&lt;div&gt;Thread Gage&lt;/div&gt;" style="rounded=0;whiteSpace=wrap;html=1;" parent="4boxyq-SklZZd-zCNQBX-19" vertex="1">
          <mxGeometry width="120" height="60" as="geometry" />
        </mxCell>
        <mxCell id="4boxyq-SklZZd-zCNQBX-21" value="&lt;font style=&quot;font-size: 10px;&quot;&gt;Operator&lt;/font&gt;" style="rounded=0;whiteSpace=wrap;html=1;" parent="4boxyq-SklZZd-zCNQBX-19" vertex="1">
          <mxGeometry y="60" width="120" height="20" as="geometry" />
        </mxCell>
        <mxCell id="4boxyq-SklZZd-zCNQBX-22" value="" style="rounded=0;whiteSpace=wrap;html=1;" parent="4boxyq-SklZZd-zCNQBX-19" vertex="1">
          <mxGeometry y="80" width="120" height="30" as="geometry" />
        </mxCell>
        <mxCell id="4boxyq-SklZZd-zCNQBX-25" value="" style="endArrow=classic;html=1;rounded=0;" parent="1" edge="1">
          <mxGeometry relative="1" as="geometry">
            <mxPoint x="800" y="144.58000000000004" as="sourcePoint" />
            <mxPoint x="870" y="145" as="targetPoint" />
          </mxGeometry>
        </mxCell>
        <mxCell id="4boxyq-SklZZd-zCNQBX-26" value="Data is Valid" style="edgeLabel;html=1;align=center;verticalAlign=middle;resizable=0;points=[];" parent="4boxyq-SklZZd-zCNQBX-25" vertex="1" connectable="0">
          <mxGeometry x="-0.02" y="5" relative="1" as="geometry">
            <mxPoint y="-25" as="offset" />
          </mxGeometry>
        </mxCell>
        <mxCell id="4boxyq-SklZZd-zCNQBX-27" value="Thread Checkout Process" style="text;strokeColor=none;fillColor=none;html=1;fontSize=24;fontStyle=1;verticalAlign=middle;align=center;" parent="1" vertex="1">
          <mxGeometry x="470" y="40" width="100" height="40" as="geometry" />
        </mxCell>
        <mxCell id="aIoXn83sJTP7b48Sldc7-17" value="" style="group" parent="1" vertex="1" connectable="0">
          <mxGeometry x="670" y="100" width="120" height="120" as="geometry" />
        </mxCell>
        <mxCell id="aIoXn83sJTP7b48Sldc7-18" value="Validate Data" style="rounded=0;whiteSpace=wrap;html=1;" parent="aIoXn83sJTP7b48Sldc7-17" vertex="1">
          <mxGeometry width="120" height="71.05263157894737" as="geometry" />
        </mxCell>
        <mxCell id="aIoXn83sJTP7b48Sldc7-19" value="&lt;font style=&quot;font-size: 10px;&quot;&gt;Gage Checkout System&lt;/font&gt;" style="rounded=0;whiteSpace=wrap;html=1;" parent="aIoXn83sJTP7b48Sldc7-17" vertex="1">
          <mxGeometry y="71.05263157894737" width="120" height="23.68421052631579" as="geometry" />
        </mxCell>
        <mxCell id="aIoXn83sJTP7b48Sldc7-20" value="" style="rounded=0;whiteSpace=wrap;html=1;" parent="aIoXn83sJTP7b48Sldc7-17" vertex="1">
          <mxGeometry y="94.73684210526316" width="120" height="23.68421052631579" as="geometry" />
        </mxCell>
        <mxCell id="aIoXn83sJTP7b48Sldc7-21" value="" style="verticalLabelPosition=bottom;verticalAlign=top;html=1;shape=mxgraph.basic.orthogonal_triangle;rotation=90;fillColor=#d5e8d4;strokeColor=#82b366;" parent="aIoXn83sJTP7b48Sldc7-17" vertex="1">
          <mxGeometry x="-0.96" y="3.54" width="32" height="27.35" as="geometry" />
        </mxCell>
        <mxCell id="aIoXn83sJTP7b48Sldc7-22" value="3" style="text;html=1;align=center;verticalAlign=middle;resizable=0;points=[];autosize=1;strokeColor=none;fillColor=none;" parent="aIoXn83sJTP7b48Sldc7-17" vertex="1">
          <mxGeometry x="-6" y="-4.192105263157852" width="30" height="30" as="geometry" />
        </mxCell>
        <mxCell id="6R6sxgmKPg6imtCZPmux-3" value="&lt;span style=&quot;font-size: 12px; background-color: rgb(251, 251, 251);&quot;&gt;Receipt Is Printed&lt;/span&gt;" style="edgeLabel;html=1;align=center;verticalAlign=middle;resizable=0;points=[];" vertex="1" connectable="0" parent="1">
          <mxGeometry x="120.00176470588244" y="280.0000000000001" as="geometry" />
        </mxCell>
      </root>
    </mxGraphModel>
  </diagram>
  <diagram id="qu_pupDIp4LbZKF0Q84o" name="Validation">
    <mxGraphModel dx="683" dy="402" grid="1" gridSize="10" guides="1" tooltips="1" connect="1" arrows="1" fold="1" page="1" pageScale="1" pageWidth="1100" pageHeight="850" math="0" shadow="0">
      <root>
        <mxCell id="0" />
        <mxCell id="1" parent="0" />
        <mxCell id="BEySvlAOZQtpwPnahLKU-1" value="" style="group" parent="1" vertex="1" connectable="0">
          <mxGeometry x="80" y="120" width="30" height="30" as="geometry" />
        </mxCell>
        <mxCell id="BEySvlAOZQtpwPnahLKU-2" value="" style="ellipse;whiteSpace=wrap;html=1;aspect=fixed;fillColor=#d5e8d4;gradientColor=#97d077;strokeColor=#82b366;" parent="BEySvlAOZQtpwPnahLKU-1" vertex="1">
          <mxGeometry width="30" height="30" as="geometry" />
        </mxCell>
        <mxCell id="BEySvlAOZQtpwPnahLKU-8" style="edgeStyle=none;rounded=0;orthogonalLoop=1;jettySize=auto;html=1;" parent="BEySvlAOZQtpwPnahLKU-1" source="BEySvlAOZQtpwPnahLKU-3" edge="1">
          <mxGeometry relative="1" as="geometry">
            <mxPoint x="110" y="15" as="targetPoint" />
          </mxGeometry>
        </mxCell>
        <mxCell id="BEySvlAOZQtpwPnahLKU-3" value="&lt;font style=&quot;font-size: 16px;&quot;&gt;&lt;b&gt;1&lt;/b&gt;&lt;/font&gt;" style="text;html=1;align=center;verticalAlign=middle;resizable=0;points=[];autosize=1;" parent="BEySvlAOZQtpwPnahLKU-1" vertex="1">
          <mxGeometry width="30" height="30" as="geometry" />
        </mxCell>
        <mxCell id="BEySvlAOZQtpwPnahLKU-4" value="" style="group" parent="1" vertex="1" connectable="0">
          <mxGeometry x="200" y="90" width="120" height="110" as="geometry" />
        </mxCell>
        <mxCell id="BEySvlAOZQtpwPnahLKU-5" value="Validates all fields are filled out" style="rounded=0;whiteSpace=wrap;html=1;" parent="BEySvlAOZQtpwPnahLKU-4" vertex="1">
          <mxGeometry width="120" height="66" as="geometry" />
        </mxCell>
        <mxCell id="BEySvlAOZQtpwPnahLKU-6" value="&lt;span style=&quot;font-size: 10px;&quot;&gt;Gage Checkout System&lt;/span&gt;" style="rounded=0;whiteSpace=wrap;html=1;" parent="BEySvlAOZQtpwPnahLKU-4" vertex="1">
          <mxGeometry y="66" width="120" height="22" as="geometry" />
        </mxCell>
        <mxCell id="BEySvlAOZQtpwPnahLKU-7" value="" style="rounded=0;whiteSpace=wrap;html=1;" parent="BEySvlAOZQtpwPnahLKU-4" vertex="1">
          <mxGeometry y="88" width="120" height="22" as="geometry" />
        </mxCell>
        <mxCell id="bh_NojONuf00RkBjvXL3-1" value="Pin Validation Process" style="text;strokeColor=none;fillColor=none;html=1;fontSize=24;fontStyle=1;verticalAlign=middle;align=center;" parent="1" vertex="1">
          <mxGeometry x="470" y="40" width="100" height="40" as="geometry" />
        </mxCell>
        <mxCell id="mk3vF4MTQXGXE61ueeAZ-1" value="&lt;font style=&quot;font-size: 11px;&quot;&gt;User Submits Pin Checkout Request&lt;/font&gt;" style="text;html=1;align=center;verticalAlign=middle;whiteSpace=wrap;rounded=0;" vertex="1" parent="1">
          <mxGeometry x="110" y="90" width="80" height="30" as="geometry" />
        </mxCell>
        <mxCell id="gcys9DpydG0j8KdH9q7M-1" style="edgeStyle=none;rounded=0;orthogonalLoop=1;jettySize=auto;html=1;" edge="1" parent="1">
          <mxGeometry relative="1" as="geometry">
            <mxPoint x="420" y="145" as="targetPoint" />
            <mxPoint x="320" y="144.5" as="sourcePoint" />
          </mxGeometry>
        </mxCell>
        <mxCell id="gcys9DpydG0j8KdH9q7M-2" value="" style="group" vertex="1" connectable="0" parent="1">
          <mxGeometry x="430" y="90" width="120" height="110" as="geometry" />
        </mxCell>
        <mxCell id="gcys9DpydG0j8KdH9q7M-3" value="Ensures that Operator Employee ID are valid" style="rounded=0;whiteSpace=wrap;html=1;" vertex="1" parent="gcys9DpydG0j8KdH9q7M-2">
          <mxGeometry width="120" height="66" as="geometry" />
        </mxCell>
        <mxCell id="gcys9DpydG0j8KdH9q7M-4" value="&lt;span style=&quot;font-size: 10px;&quot;&gt;Some employee DB&lt;/span&gt;" style="rounded=0;whiteSpace=wrap;html=1;" vertex="1" parent="gcys9DpydG0j8KdH9q7M-2">
          <mxGeometry y="66" width="120" height="22" as="geometry" />
        </mxCell>
        <mxCell id="gcys9DpydG0j8KdH9q7M-5" value="" style="rounded=0;whiteSpace=wrap;html=1;" vertex="1" parent="gcys9DpydG0j8KdH9q7M-2">
          <mxGeometry y="88" width="120" height="22" as="geometry" />
        </mxCell>
        <mxCell id="gcys9DpydG0j8KdH9q7M-6" style="edgeStyle=none;rounded=0;orthogonalLoop=1;jettySize=auto;html=1;" edge="1" parent="1">
          <mxGeometry relative="1" as="geometry">
            <mxPoint x="630" y="144.5" as="targetPoint" />
            <mxPoint x="550" y="144.5" as="sourcePoint" />
          </mxGeometry>
        </mxCell>
        <mxCell id="gcys9DpydG0j8KdH9q7M-7" value="&lt;font style=&quot;font-size: 11px;&quot;&gt;Data Is Valid&lt;/font&gt;" style="text;html=1;align=center;verticalAlign=middle;whiteSpace=wrap;rounded=0;" vertex="1" parent="1">
          <mxGeometry x="560" y="110" width="80" height="30" as="geometry" />
        </mxCell>
        <mxCell id="gcys9DpydG0j8KdH9q7M-33" value="&lt;font style=&quot;font-size: 11px;&quot;&gt;Fields are&amp;nbsp;&lt;/font&gt;&lt;div&gt;&lt;font style=&quot;font-size: 11px;&quot;&gt;filled out&lt;/font&gt;&lt;/div&gt;" style="text;html=1;align=center;verticalAlign=middle;whiteSpace=wrap;rounded=0;" vertex="1" parent="1">
          <mxGeometry x="330" y="110" width="80" height="30" as="geometry" />
        </mxCell>
        <mxCell id="gcys9DpydG0j8KdH9q7M-34" value="" style="group" vertex="1" connectable="0" parent="1">
          <mxGeometry x="80" y="360" width="30" height="30" as="geometry" />
        </mxCell>
        <mxCell id="gcys9DpydG0j8KdH9q7M-35" value="" style="ellipse;whiteSpace=wrap;html=1;aspect=fixed;fillColor=#d5e8d4;gradientColor=#97d077;strokeColor=#82b366;" vertex="1" parent="gcys9DpydG0j8KdH9q7M-34">
          <mxGeometry width="30" height="30" as="geometry" />
        </mxCell>
        <mxCell id="gcys9DpydG0j8KdH9q7M-36" style="edgeStyle=none;rounded=0;orthogonalLoop=1;jettySize=auto;html=1;" edge="1" parent="gcys9DpydG0j8KdH9q7M-34" source="gcys9DpydG0j8KdH9q7M-37">
          <mxGeometry relative="1" as="geometry">
            <mxPoint x="110" y="15" as="targetPoint" />
          </mxGeometry>
        </mxCell>
        <mxCell id="gcys9DpydG0j8KdH9q7M-37" value="&lt;font style=&quot;font-size: 16px;&quot;&gt;&lt;b&gt;2&lt;/b&gt;&lt;/font&gt;" style="text;html=1;align=center;verticalAlign=middle;resizable=0;points=[];autosize=1;" vertex="1" parent="gcys9DpydG0j8KdH9q7M-34">
          <mxGeometry width="30" height="30" as="geometry" />
        </mxCell>
        <mxCell id="gcys9DpydG0j8KdH9q7M-38" value="" style="group" vertex="1" connectable="0" parent="1">
          <mxGeometry x="200" y="330" width="120" height="110" as="geometry" />
        </mxCell>
        <mxCell id="gcys9DpydG0j8KdH9q7M-39" value="Validates all fields are filled out" style="rounded=0;whiteSpace=wrap;html=1;" vertex="1" parent="gcys9DpydG0j8KdH9q7M-38">
          <mxGeometry width="120" height="66" as="geometry" />
        </mxCell>
        <mxCell id="gcys9DpydG0j8KdH9q7M-40" value="&lt;span style=&quot;font-size: 10px;&quot;&gt;Gage Checkout System&lt;/span&gt;" style="rounded=0;whiteSpace=wrap;html=1;" vertex="1" parent="gcys9DpydG0j8KdH9q7M-38">
          <mxGeometry y="66" width="120" height="22" as="geometry" />
        </mxCell>
        <mxCell id="gcys9DpydG0j8KdH9q7M-41" value="" style="rounded=0;whiteSpace=wrap;html=1;" vertex="1" parent="gcys9DpydG0j8KdH9q7M-38">
          <mxGeometry y="88" width="120" height="22" as="geometry" />
        </mxCell>
        <mxCell id="gcys9DpydG0j8KdH9q7M-42" value="Bin Validation Process" style="text;strokeColor=none;fillColor=none;html=1;fontSize=24;fontStyle=1;verticalAlign=middle;align=center;" vertex="1" parent="1">
          <mxGeometry x="470" y="280" width="100" height="40" as="geometry" />
        </mxCell>
        <mxCell id="gcys9DpydG0j8KdH9q7M-43" value="&lt;font style=&quot;font-size: 11px;&quot;&gt;User Submits Bin Checkout Request&lt;/font&gt;" style="text;html=1;align=center;verticalAlign=middle;whiteSpace=wrap;rounded=0;" vertex="1" parent="1">
          <mxGeometry x="110" y="330" width="80" height="30" as="geometry" />
        </mxCell>
        <mxCell id="gcys9DpydG0j8KdH9q7M-44" style="edgeStyle=none;rounded=0;orthogonalLoop=1;jettySize=auto;html=1;" edge="1" parent="1">
          <mxGeometry relative="1" as="geometry">
            <mxPoint x="420" y="385" as="targetPoint" />
            <mxPoint x="320" y="384.5" as="sourcePoint" />
          </mxGeometry>
        </mxCell>
        <mxCell id="gcys9DpydG0j8KdH9q7M-45" value="" style="group" vertex="1" connectable="0" parent="1">
          <mxGeometry x="430" y="330" width="120" height="110" as="geometry" />
        </mxCell>
        <mxCell id="gcys9DpydG0j8KdH9q7M-46" value="Ensures that Operator Employee ID are valid" style="rounded=0;whiteSpace=wrap;html=1;" vertex="1" parent="gcys9DpydG0j8KdH9q7M-45">
          <mxGeometry width="120" height="66" as="geometry" />
        </mxCell>
        <mxCell id="gcys9DpydG0j8KdH9q7M-47" value="&lt;span style=&quot;font-size: 10px;&quot;&gt;Some employee DB&lt;/span&gt;" style="rounded=0;whiteSpace=wrap;html=1;" vertex="1" parent="gcys9DpydG0j8KdH9q7M-45">
          <mxGeometry y="66" width="120" height="22" as="geometry" />
        </mxCell>
        <mxCell id="gcys9DpydG0j8KdH9q7M-48" value="" style="rounded=0;whiteSpace=wrap;html=1;" vertex="1" parent="gcys9DpydG0j8KdH9q7M-45">
          <mxGeometry y="88" width="120" height="22" as="geometry" />
        </mxCell>
        <mxCell id="gcys9DpydG0j8KdH9q7M-49" style="edgeStyle=none;rounded=0;orthogonalLoop=1;jettySize=auto;html=1;" edge="1" parent="1">
          <mxGeometry relative="1" as="geometry">
            <mxPoint x="630" y="384.5" as="targetPoint" />
            <mxPoint x="550" y="384.5" as="sourcePoint" />
          </mxGeometry>
        </mxCell>
        <mxCell id="gcys9DpydG0j8KdH9q7M-50" value="&lt;font style=&quot;font-size: 11px;&quot;&gt;Employee ID&lt;/font&gt;&lt;div&gt;&lt;font style=&quot;font-size: 11px;&quot;&gt;Exists&lt;/font&gt;&lt;/div&gt;" style="text;html=1;align=center;verticalAlign=middle;whiteSpace=wrap;rounded=0;" vertex="1" parent="1">
          <mxGeometry x="560" y="350" width="80" height="30" as="geometry" />
        </mxCell>
        <mxCell id="gcys9DpydG0j8KdH9q7M-51" value="&lt;font style=&quot;font-size: 11px;&quot;&gt;Fields are&amp;nbsp;&lt;/font&gt;&lt;div&gt;&lt;font style=&quot;font-size: 11px;&quot;&gt;filled out&lt;/font&gt;&lt;/div&gt;" style="text;html=1;align=center;verticalAlign=middle;whiteSpace=wrap;rounded=0;" vertex="1" parent="1">
          <mxGeometry x="330" y="350" width="80" height="30" as="geometry" />
        </mxCell>
        <mxCell id="gcys9DpydG0j8KdH9q7M-52" value="" style="group" vertex="1" connectable="0" parent="1">
          <mxGeometry x="640" y="330" width="120" height="110" as="geometry" />
        </mxCell>
        <mxCell id="gcys9DpydG0j8KdH9q7M-53" value="Validates that Bin Exists" style="rounded=0;whiteSpace=wrap;html=1;" vertex="1" parent="gcys9DpydG0j8KdH9q7M-52">
          <mxGeometry width="120" height="66" as="geometry" />
        </mxCell>
        <mxCell id="gcys9DpydG0j8KdH9q7M-54" value="&lt;span style=&quot;font-size: 10px;&quot;&gt;GageTrak&lt;/span&gt;" style="rounded=0;whiteSpace=wrap;html=1;" vertex="1" parent="gcys9DpydG0j8KdH9q7M-52">
          <mxGeometry y="66" width="120" height="22" as="geometry" />
        </mxCell>
        <mxCell id="gcys9DpydG0j8KdH9q7M-55" value="" style="rounded=0;whiteSpace=wrap;html=1;" vertex="1" parent="gcys9DpydG0j8KdH9q7M-52">
          <mxGeometry y="88" width="120" height="22" as="geometry" />
        </mxCell>
        <mxCell id="gcys9DpydG0j8KdH9q7M-56" style="edgeStyle=none;rounded=0;orthogonalLoop=1;jettySize=auto;html=1;" edge="1" parent="1">
          <mxGeometry relative="1" as="geometry">
            <mxPoint x="840" y="389" as="targetPoint" />
            <mxPoint x="760" y="389" as="sourcePoint" />
          </mxGeometry>
        </mxCell>
        <mxCell id="gcys9DpydG0j8KdH9q7M-57" value="&lt;font style=&quot;font-size: 11px;&quot;&gt;Bin Exists&lt;/font&gt;" style="text;html=1;align=center;verticalAlign=middle;whiteSpace=wrap;rounded=0;" vertex="1" parent="1">
          <mxGeometry x="770" y="354.5" width="80" height="30" as="geometry" />
        </mxCell>
        <mxCell id="gcys9DpydG0j8KdH9q7M-82" value="" style="group" vertex="1" connectable="0" parent="1">
          <mxGeometry x="850" y="330" width="120" height="110" as="geometry" />
        </mxCell>
        <mxCell id="gcys9DpydG0j8KdH9q7M-83" value="Validates that Bin Is not checked out" style="rounded=0;whiteSpace=wrap;html=1;" vertex="1" parent="gcys9DpydG0j8KdH9q7M-82">
          <mxGeometry width="120" height="66" as="geometry" />
        </mxCell>
        <mxCell id="gcys9DpydG0j8KdH9q7M-84" value="&lt;span style=&quot;font-size: 10px;&quot;&gt;Gage Checkout System&lt;/span&gt;" style="rounded=0;whiteSpace=wrap;html=1;" vertex="1" parent="gcys9DpydG0j8KdH9q7M-82">
          <mxGeometry y="66" width="120" height="22" as="geometry" />
        </mxCell>
        <mxCell id="gcys9DpydG0j8KdH9q7M-85" value="" style="rounded=0;whiteSpace=wrap;html=1;" vertex="1" parent="gcys9DpydG0j8KdH9q7M-82">
          <mxGeometry y="88" width="120" height="22" as="geometry" />
        </mxCell>
        <mxCell id="gcys9DpydG0j8KdH9q7M-86" style="edgeStyle=none;rounded=0;orthogonalLoop=1;jettySize=auto;html=1;" edge="1" parent="1">
          <mxGeometry relative="1" as="geometry">
            <mxPoint x="1050" y="391.75" as="targetPoint" />
            <mxPoint x="970" y="391.75" as="sourcePoint" />
          </mxGeometry>
        </mxCell>
        <mxCell id="gcys9DpydG0j8KdH9q7M-87" value="&lt;font style=&quot;font-size: 11px;&quot;&gt;Data Is Valid&lt;/font&gt;" style="text;html=1;align=center;verticalAlign=middle;whiteSpace=wrap;rounded=0;" vertex="1" parent="1">
          <mxGeometry x="980" y="357.25" width="80" height="30" as="geometry" />
        </mxCell>
        <mxCell id="gcys9DpydG0j8KdH9q7M-88" value="" style="group" vertex="1" connectable="0" parent="1">
          <mxGeometry x="80" y="600" width="30" height="30" as="geometry" />
        </mxCell>
        <mxCell id="gcys9DpydG0j8KdH9q7M-89" value="" style="ellipse;whiteSpace=wrap;html=1;aspect=fixed;fillColor=#d5e8d4;gradientColor=#97d077;strokeColor=#82b366;" vertex="1" parent="gcys9DpydG0j8KdH9q7M-88">
          <mxGeometry width="30" height="30" as="geometry" />
        </mxCell>
        <mxCell id="gcys9DpydG0j8KdH9q7M-90" style="edgeStyle=none;rounded=0;orthogonalLoop=1;jettySize=auto;html=1;" edge="1" parent="gcys9DpydG0j8KdH9q7M-88" source="gcys9DpydG0j8KdH9q7M-91">
          <mxGeometry relative="1" as="geometry">
            <mxPoint x="110" y="15" as="targetPoint" />
          </mxGeometry>
        </mxCell>
        <mxCell id="gcys9DpydG0j8KdH9q7M-91" value="&lt;font style=&quot;font-size: 16px;&quot;&gt;&lt;b&gt;3&lt;/b&gt;&lt;/font&gt;" style="text;html=1;align=center;verticalAlign=middle;resizable=0;points=[];autosize=1;" vertex="1" parent="gcys9DpydG0j8KdH9q7M-88">
          <mxGeometry width="30" height="30" as="geometry" />
        </mxCell>
        <mxCell id="gcys9DpydG0j8KdH9q7M-92" value="" style="group" vertex="1" connectable="0" parent="1">
          <mxGeometry x="200" y="570" width="120" height="110" as="geometry" />
        </mxCell>
        <mxCell id="gcys9DpydG0j8KdH9q7M-93" value="Validates all fields are filled out" style="rounded=0;whiteSpace=wrap;html=1;" vertex="1" parent="gcys9DpydG0j8KdH9q7M-92">
          <mxGeometry width="120" height="66" as="geometry" />
        </mxCell>
        <mxCell id="gcys9DpydG0j8KdH9q7M-94" value="&lt;span style=&quot;font-size: 10px;&quot;&gt;Gage Checkout System&lt;/span&gt;" style="rounded=0;whiteSpace=wrap;html=1;" vertex="1" parent="gcys9DpydG0j8KdH9q7M-92">
          <mxGeometry y="66" width="120" height="22" as="geometry" />
        </mxCell>
        <mxCell id="gcys9DpydG0j8KdH9q7M-95" value="" style="rounded=0;whiteSpace=wrap;html=1;" vertex="1" parent="gcys9DpydG0j8KdH9q7M-92">
          <mxGeometry y="88" width="120" height="22" as="geometry" />
        </mxCell>
        <mxCell id="gcys9DpydG0j8KdH9q7M-96" value="Thread Gage Validation Process" style="text;strokeColor=none;fillColor=none;html=1;fontSize=24;fontStyle=1;verticalAlign=middle;align=center;" vertex="1" parent="1">
          <mxGeometry x="470" y="520" width="100" height="40" as="geometry" />
        </mxCell>
        <mxCell id="gcys9DpydG0j8KdH9q7M-97" value="&lt;font style=&quot;font-size: 11px;&quot;&gt;User Submits Thread Gage Checkout Request&lt;/font&gt;" style="text;html=1;align=center;verticalAlign=middle;whiteSpace=wrap;rounded=0;" vertex="1" parent="1">
          <mxGeometry x="110" y="570" width="80" height="30" as="geometry" />
        </mxCell>
        <mxCell id="gcys9DpydG0j8KdH9q7M-98" style="edgeStyle=none;rounded=0;orthogonalLoop=1;jettySize=auto;html=1;" edge="1" parent="1">
          <mxGeometry relative="1" as="geometry">
            <mxPoint x="420" y="625" as="targetPoint" />
            <mxPoint x="320" y="624.5" as="sourcePoint" />
          </mxGeometry>
        </mxCell>
        <mxCell id="gcys9DpydG0j8KdH9q7M-99" value="" style="group" vertex="1" connectable="0" parent="1">
          <mxGeometry x="430" y="570" width="120" height="110" as="geometry" />
        </mxCell>
        <mxCell id="gcys9DpydG0j8KdH9q7M-100" value="Ensures that Operator Employee ID are valid" style="rounded=0;whiteSpace=wrap;html=1;" vertex="1" parent="gcys9DpydG0j8KdH9q7M-99">
          <mxGeometry width="120" height="66" as="geometry" />
        </mxCell>
        <mxCell id="gcys9DpydG0j8KdH9q7M-101" value="&lt;span style=&quot;font-size: 10px;&quot;&gt;Some employee DB&lt;/span&gt;" style="rounded=0;whiteSpace=wrap;html=1;" vertex="1" parent="gcys9DpydG0j8KdH9q7M-99">
          <mxGeometry y="66" width="120" height="22" as="geometry" />
        </mxCell>
        <mxCell id="gcys9DpydG0j8KdH9q7M-102" value="" style="rounded=0;whiteSpace=wrap;html=1;" vertex="1" parent="gcys9DpydG0j8KdH9q7M-99">
          <mxGeometry y="88" width="120" height="22" as="geometry" />
        </mxCell>
        <mxCell id="gcys9DpydG0j8KdH9q7M-103" style="edgeStyle=none;rounded=0;orthogonalLoop=1;jettySize=auto;html=1;" edge="1" parent="1">
          <mxGeometry relative="1" as="geometry">
            <mxPoint x="630" y="624.5" as="targetPoint" />
            <mxPoint x="550" y="624.5" as="sourcePoint" />
          </mxGeometry>
        </mxCell>
        <mxCell id="gcys9DpydG0j8KdH9q7M-104" value="&lt;font style=&quot;font-size: 11px;&quot;&gt;Employee ID&lt;/font&gt;&lt;div&gt;&lt;font style=&quot;font-size: 11px;&quot;&gt;Exists&lt;/font&gt;&lt;/div&gt;" style="text;html=1;align=center;verticalAlign=middle;whiteSpace=wrap;rounded=0;" vertex="1" parent="1">
          <mxGeometry x="560" y="590" width="80" height="30" as="geometry" />
        </mxCell>
        <mxCell id="gcys9DpydG0j8KdH9q7M-105" value="&lt;font style=&quot;font-size: 11px;&quot;&gt;Fields are&amp;nbsp;&lt;/font&gt;&lt;div&gt;&lt;font style=&quot;font-size: 11px;&quot;&gt;filled out&lt;/font&gt;&lt;/div&gt;" style="text;html=1;align=center;verticalAlign=middle;whiteSpace=wrap;rounded=0;" vertex="1" parent="1">
          <mxGeometry x="330" y="590" width="80" height="30" as="geometry" />
        </mxCell>
        <mxCell id="gcys9DpydG0j8KdH9q7M-106" value="" style="group" vertex="1" connectable="0" parent="1">
          <mxGeometry x="640" y="570" width="120" height="110" as="geometry" />
        </mxCell>
        <mxCell id="gcys9DpydG0j8KdH9q7M-107" value="Validates that Thread Gage Exists" style="rounded=0;whiteSpace=wrap;html=1;" vertex="1" parent="gcys9DpydG0j8KdH9q7M-106">
          <mxGeometry width="120" height="66" as="geometry" />
        </mxCell>
        <mxCell id="gcys9DpydG0j8KdH9q7M-108" value="&lt;span style=&quot;font-size: 10px;&quot;&gt;GageTrak&lt;/span&gt;" style="rounded=0;whiteSpace=wrap;html=1;" vertex="1" parent="gcys9DpydG0j8KdH9q7M-106">
          <mxGeometry y="66" width="120" height="22" as="geometry" />
        </mxCell>
        <mxCell id="gcys9DpydG0j8KdH9q7M-109" value="" style="rounded=0;whiteSpace=wrap;html=1;" vertex="1" parent="gcys9DpydG0j8KdH9q7M-106">
          <mxGeometry y="88" width="120" height="22" as="geometry" />
        </mxCell>
        <mxCell id="gcys9DpydG0j8KdH9q7M-110" style="edgeStyle=none;rounded=0;orthogonalLoop=1;jettySize=auto;html=1;" edge="1" parent="1">
          <mxGeometry relative="1" as="geometry">
            <mxPoint x="840" y="629" as="targetPoint" />
            <mxPoint x="760" y="629" as="sourcePoint" />
          </mxGeometry>
        </mxCell>
        <mxCell id="gcys9DpydG0j8KdH9q7M-111" value="&lt;font style=&quot;font-size: 11px;&quot;&gt;Thread Gage Exists&lt;/font&gt;" style="text;html=1;align=center;verticalAlign=middle;whiteSpace=wrap;rounded=0;" vertex="1" parent="1">
          <mxGeometry x="770" y="594.5" width="80" height="30" as="geometry" />
        </mxCell>
        <mxCell id="gcys9DpydG0j8KdH9q7M-112" value="" style="group" vertex="1" connectable="0" parent="1">
          <mxGeometry x="850" y="570" width="120" height="110" as="geometry" />
        </mxCell>
        <mxCell id="gcys9DpydG0j8KdH9q7M-113" value="Validates that Thread Gage Is not checked out" style="rounded=0;whiteSpace=wrap;html=1;" vertex="1" parent="gcys9DpydG0j8KdH9q7M-112">
          <mxGeometry width="120" height="66" as="geometry" />
        </mxCell>
        <mxCell id="gcys9DpydG0j8KdH9q7M-114" value="&lt;span style=&quot;font-size: 10px;&quot;&gt;Gage Checkout System&lt;/span&gt;" style="rounded=0;whiteSpace=wrap;html=1;" vertex="1" parent="gcys9DpydG0j8KdH9q7M-112">
          <mxGeometry y="66" width="120" height="22" as="geometry" />
        </mxCell>
        <mxCell id="gcys9DpydG0j8KdH9q7M-115" value="" style="rounded=0;whiteSpace=wrap;html=1;" vertex="1" parent="gcys9DpydG0j8KdH9q7M-112">
          <mxGeometry y="88" width="120" height="22" as="geometry" />
        </mxCell>
        <mxCell id="gcys9DpydG0j8KdH9q7M-116" style="edgeStyle=none;rounded=0;orthogonalLoop=1;jettySize=auto;html=1;" edge="1" parent="1">
          <mxGeometry relative="1" as="geometry">
            <mxPoint x="1050" y="631.75" as="targetPoint" />
            <mxPoint x="970" y="631.75" as="sourcePoint" />
          </mxGeometry>
        </mxCell>
        <mxCell id="gcys9DpydG0j8KdH9q7M-117" value="&lt;font style=&quot;font-size: 11px;&quot;&gt;Data Is Valid&lt;/font&gt;" style="text;html=1;align=center;verticalAlign=middle;whiteSpace=wrap;rounded=0;" vertex="1" parent="1">
          <mxGeometry x="980" y="597.25" width="80" height="30" as="geometry" />
        </mxCell>
      </root>
    </mxGraphModel>
  </diagram>
  <diagram id="u6Pigwy67tWgDQc3ZiUj" name="Pin Calibration">
    <mxGraphModel dx="1857" dy="873" grid="1" gridSize="10" guides="1" tooltips="1" connect="1" arrows="1" fold="1" page="1" pageScale="1" pageWidth="1100" pageHeight="850" math="0" shadow="0">
      <root>
        <mxCell id="0" />
        <mxCell id="1" parent="0" />
        <mxCell id="HmiSroL9kKj-W_29CywV-5" value="" style="group" parent="1" vertex="1" connectable="0">
          <mxGeometry x="200" y="90" width="120" height="110" as="geometry" />
        </mxCell>
        <mxCell id="HmiSroL9kKj-W_29CywV-6" value="Opens Gage Checkout Calibration Form" style="rounded=0;whiteSpace=wrap;html=1;" parent="HmiSroL9kKj-W_29CywV-5" vertex="1">
          <mxGeometry width="120" height="66" as="geometry" />
        </mxCell>
        <mxCell id="HmiSroL9kKj-W_29CywV-7" value="&lt;span style=&quot;font-size: 10px;&quot;&gt;Metrology Cal Tech&lt;/span&gt;" style="rounded=0;whiteSpace=wrap;html=1;" parent="HmiSroL9kKj-W_29CywV-5" vertex="1">
          <mxGeometry y="66" width="120" height="22" as="geometry" />
        </mxCell>
        <mxCell id="HmiSroL9kKj-W_29CywV-8" value="" style="rounded=0;whiteSpace=wrap;html=1;" parent="HmiSroL9kKj-W_29CywV-5" vertex="1">
          <mxGeometry y="88" width="120" height="22" as="geometry" />
        </mxCell>
        <mxCell id="HmiSroL9kKj-W_29CywV-9" value="Pin Calibration Process" style="text;strokeColor=none;fillColor=none;html=1;fontSize=24;fontStyle=1;verticalAlign=middle;align=center;" parent="1" vertex="1">
          <mxGeometry x="470" y="40" width="100" height="40" as="geometry" />
        </mxCell>
        <mxCell id="HmiSroL9kKj-W_29CywV-10" value="&lt;font style=&quot;font-size: 11px;&quot;&gt;Pins need to&lt;/font&gt;&lt;div&gt;&lt;font style=&quot;font-size: 11px;&quot;&gt;be calibrated&lt;/font&gt;&lt;/div&gt;" style="text;html=1;align=center;verticalAlign=middle;whiteSpace=wrap;rounded=0;" parent="1" vertex="1">
          <mxGeometry x="90" y="110" width="80" height="30" as="geometry" />
        </mxCell>
        <mxCell id="HmiSroL9kKj-W_29CywV-11" style="edgeStyle=none;rounded=0;orthogonalLoop=1;jettySize=auto;html=1;" parent="1" edge="1">
          <mxGeometry relative="1" as="geometry">
            <mxPoint x="420" y="145" as="targetPoint" />
            <mxPoint x="320" y="144.5" as="sourcePoint" />
          </mxGeometry>
        </mxCell>
        <mxCell id="HmiSroL9kKj-W_29CywV-12" value="" style="group" parent="1" vertex="1" connectable="0">
          <mxGeometry x="430" y="90" width="120" height="110" as="geometry" />
        </mxCell>
        <mxCell id="HmiSroL9kKj-W_29CywV-13" value="Metrology User Searches by Ticket Number" style="rounded=0;whiteSpace=wrap;html=1;" parent="HmiSroL9kKj-W_29CywV-12" vertex="1">
          <mxGeometry width="120" height="66" as="geometry" />
        </mxCell>
        <mxCell id="HmiSroL9kKj-W_29CywV-14" value="&lt;span style=&quot;font-size: 10px;&quot;&gt;Metrology Cal Tech&lt;/span&gt;" style="rounded=0;whiteSpace=wrap;html=1;" parent="HmiSroL9kKj-W_29CywV-12" vertex="1">
          <mxGeometry y="66" width="120" height="22" as="geometry" />
        </mxCell>
        <mxCell id="HmiSroL9kKj-W_29CywV-15" value="" style="rounded=0;whiteSpace=wrap;html=1;" parent="HmiSroL9kKj-W_29CywV-12" vertex="1">
          <mxGeometry y="88" width="120" height="22" as="geometry" />
        </mxCell>
        <mxCell id="HmiSroL9kKj-W_29CywV-16" style="edgeStyle=none;rounded=0;orthogonalLoop=1;jettySize=auto;html=1;" parent="1" edge="1">
          <mxGeometry relative="1" as="geometry">
            <mxPoint x="630" y="144.5" as="targetPoint" />
            <mxPoint x="550" y="144.5" as="sourcePoint" />
          </mxGeometry>
        </mxCell>
        <mxCell id="HmiSroL9kKj-W_29CywV-17" value="&lt;span style=&quot;font-size: 11px;&quot;&gt;Ticket Is&lt;/span&gt;&lt;div&gt;&lt;span style=&quot;font-size: 11px;&quot;&gt;&amp;nbsp;Found&lt;/span&gt;&lt;/div&gt;" style="text;html=1;align=center;verticalAlign=middle;whiteSpace=wrap;rounded=0;" parent="1" vertex="1">
          <mxGeometry x="560" y="110" width="80" height="30" as="geometry" />
        </mxCell>
        <mxCell id="HmiSroL9kKj-W_29CywV-18" value="&lt;span style=&quot;font-size: 11px;&quot;&gt;Form is displayed&lt;/span&gt;" style="text;html=1;align=center;verticalAlign=middle;whiteSpace=wrap;rounded=0;" parent="1" vertex="1">
          <mxGeometry x="330" y="110" width="80" height="30" as="geometry" />
        </mxCell>
        <mxCell id="HmiSroL9kKj-W_29CywV-79" value="" style="endArrow=classic;html=1;rounded=0;" parent="1" edge="1">
          <mxGeometry width="50" height="50" relative="1" as="geometry">
            <mxPoint x="90" y="150" as="sourcePoint" />
            <mxPoint x="190" y="150" as="targetPoint" />
          </mxGeometry>
        </mxCell>
        <mxCell id="RZVlUPDCcEAyYDzI6mfA-1" value="" style="group" parent="1" vertex="1" connectable="0">
          <mxGeometry x="640" y="90" width="120" height="110" as="geometry" />
        </mxCell>
        <mxCell id="RZVlUPDCcEAyYDzI6mfA-2" value="Pin Ticket is displayed" style="rounded=0;whiteSpace=wrap;html=1;" parent="RZVlUPDCcEAyYDzI6mfA-1" vertex="1">
          <mxGeometry width="120" height="70" as="geometry" />
        </mxCell>
        <mxCell id="RZVlUPDCcEAyYDzI6mfA-3" value="&lt;font style=&quot;font-size: 10px;&quot;&gt;Gage Checkout&lt;/font&gt;" style="rounded=0;whiteSpace=wrap;html=1;" parent="RZVlUPDCcEAyYDzI6mfA-1" vertex="1">
          <mxGeometry y="70" width="120" height="20" as="geometry" />
        </mxCell>
        <mxCell id="RZVlUPDCcEAyYDzI6mfA-4" value="" style="rounded=0;whiteSpace=wrap;html=1;" parent="RZVlUPDCcEAyYDzI6mfA-1" vertex="1">
          <mxGeometry y="90" width="120" height="20" as="geometry" />
        </mxCell>
        <mxCell id="RZVlUPDCcEAyYDzI6mfA-5" style="edgeStyle=none;rounded=0;orthogonalLoop=1;jettySize=auto;html=1;" parent="1" edge="1">
          <mxGeometry relative="1" as="geometry">
            <mxPoint x="840" y="144.5" as="targetPoint" />
            <mxPoint x="760" y="144.5" as="sourcePoint" />
          </mxGeometry>
        </mxCell>
        <mxCell id="RZVlUPDCcEAyYDzI6mfA-6" value="g" style="group" parent="1" vertex="1" connectable="0">
          <mxGeometry x="850" y="90" width="120" height="110" as="geometry" />
        </mxCell>
        <mxCell id="RZVlUPDCcEAyYDzI6mfA-7" value="Measures each pin,&lt;div&gt;records findings in form&lt;/div&gt;" style="rounded=0;whiteSpace=wrap;html=1;" parent="RZVlUPDCcEAyYDzI6mfA-6" vertex="1">
          <mxGeometry width="120" height="70" as="geometry" />
        </mxCell>
        <mxCell id="RZVlUPDCcEAyYDzI6mfA-8" value="&lt;span style=&quot;font-size: 10px;&quot;&gt;Metrology Cal Tech&lt;/span&gt;" style="rounded=0;whiteSpace=wrap;html=1;" parent="RZVlUPDCcEAyYDzI6mfA-6" vertex="1">
          <mxGeometry y="70" width="120" height="20" as="geometry" />
        </mxCell>
        <mxCell id="RZVlUPDCcEAyYDzI6mfA-9" value="" style="rounded=0;whiteSpace=wrap;html=1;" parent="RZVlUPDCcEAyYDzI6mfA-6" vertex="1">
          <mxGeometry y="90" width="120" height="20" as="geometry" />
        </mxCell>
        <mxCell id="RZVlUPDCcEAyYDzI6mfA-10" value="&lt;span style=&quot;font-size: 11px;&quot;&gt;Cal Info ready&lt;/span&gt;&lt;div&gt;&lt;span style=&quot;font-size: 11px;&quot;&gt;to be entered&lt;/span&gt;&lt;/div&gt;" style="text;html=1;align=center;verticalAlign=middle;whiteSpace=wrap;rounded=0;" parent="1" vertex="1">
          <mxGeometry x="760" y="110" width="80" height="30" as="geometry" />
        </mxCell>
        <mxCell id="RZVlUPDCcEAyYDzI6mfA-11" value="g" style="group" parent="1" vertex="1" connectable="0">
          <mxGeometry x="200" y="330" width="120" height="110" as="geometry" />
        </mxCell>
        <mxCell id="RZVlUPDCcEAyYDzI6mfA-12" value="Mark Pin as Good" style="rounded=0;whiteSpace=wrap;html=1;" parent="RZVlUPDCcEAyYDzI6mfA-11" vertex="1">
          <mxGeometry width="120" height="70" as="geometry" />
        </mxCell>
        <mxCell id="RZVlUPDCcEAyYDzI6mfA-13" value="&lt;span style=&quot;font-size: 10px;&quot;&gt;Metrology Cal Tech&lt;/span&gt;" style="rounded=0;whiteSpace=wrap;html=1;" parent="RZVlUPDCcEAyYDzI6mfA-11" vertex="1">
          <mxGeometry y="70" width="120" height="20" as="geometry" />
        </mxCell>
        <mxCell id="RZVlUPDCcEAyYDzI6mfA-14" value="" style="rounded=0;whiteSpace=wrap;html=1;" parent="RZVlUPDCcEAyYDzI6mfA-11" vertex="1">
          <mxGeometry y="90" width="120" height="20" as="geometry" />
        </mxCell>
        <mxCell id="__NF1TnNZCt_35xlNGTg-1" value="g" style="group" vertex="1" connectable="0" parent="1">
          <mxGeometry x="200" y="480" width="120" height="110" as="geometry" />
        </mxCell>
        <mxCell id="__NF1TnNZCt_35xlNGTg-2" value="Mark pin as bad" style="rounded=0;whiteSpace=wrap;html=1;" vertex="1" parent="__NF1TnNZCt_35xlNGTg-1">
          <mxGeometry width="120" height="70" as="geometry" />
        </mxCell>
        <mxCell id="__NF1TnNZCt_35xlNGTg-3" value="&lt;span style=&quot;font-size: 10px;&quot;&gt;Metrology Cal Tech&lt;/span&gt;" style="rounded=0;whiteSpace=wrap;html=1;" vertex="1" parent="__NF1TnNZCt_35xlNGTg-1">
          <mxGeometry y="70" width="120" height="20" as="geometry" />
        </mxCell>
        <mxCell id="__NF1TnNZCt_35xlNGTg-4" value="" style="rounded=0;whiteSpace=wrap;html=1;" vertex="1" parent="__NF1TnNZCt_35xlNGTg-1">
          <mxGeometry y="90" width="120" height="20" as="geometry" />
        </mxCell>
        <mxCell id="__NF1TnNZCt_35xlNGTg-5" value="g" style="group" vertex="1" connectable="0" parent="1">
          <mxGeometry x="200" y="630" width="120" height="110" as="geometry" />
        </mxCell>
        <mxCell id="__NF1TnNZCt_35xlNGTg-6" value="Mark pin as missing" style="rounded=0;whiteSpace=wrap;html=1;" vertex="1" parent="__NF1TnNZCt_35xlNGTg-5">
          <mxGeometry width="120" height="70" as="geometry" />
        </mxCell>
        <mxCell id="__NF1TnNZCt_35xlNGTg-7" value="&lt;span style=&quot;font-size: 10px;&quot;&gt;Metrology Cal Tech&lt;/span&gt;" style="rounded=0;whiteSpace=wrap;html=1;" vertex="1" parent="__NF1TnNZCt_35xlNGTg-5">
          <mxGeometry y="70" width="120" height="20" as="geometry" />
        </mxCell>
        <mxCell id="__NF1TnNZCt_35xlNGTg-8" value="" style="rounded=0;whiteSpace=wrap;html=1;" vertex="1" parent="__NF1TnNZCt_35xlNGTg-5">
          <mxGeometry y="90" width="120" height="20" as="geometry" />
        </mxCell>
        <mxCell id="__NF1TnNZCt_35xlNGTg-9" value="g" style="group" vertex="1" connectable="0" parent="1">
          <mxGeometry x="640" y="330" width="120" height="110" as="geometry" />
        </mxCell>
        <mxCell id="__NF1TnNZCt_35xlNGTg-10" value="Saves Calibration" style="rounded=0;whiteSpace=wrap;html=1;" vertex="1" parent="__NF1TnNZCt_35xlNGTg-9">
          <mxGeometry width="120" height="70" as="geometry" />
        </mxCell>
        <mxCell id="__NF1TnNZCt_35xlNGTg-11" value="&lt;span style=&quot;font-size: 10px;&quot;&gt;Metrology Cal Tech&lt;/span&gt;" style="rounded=0;whiteSpace=wrap;html=1;" vertex="1" parent="__NF1TnNZCt_35xlNGTg-9">
          <mxGeometry y="70" width="120" height="20" as="geometry" />
        </mxCell>
        <mxCell id="__NF1TnNZCt_35xlNGTg-12" value="" style="rounded=0;whiteSpace=wrap;html=1;" vertex="1" parent="__NF1TnNZCt_35xlNGTg-9">
          <mxGeometry y="90" width="120" height="20" as="geometry" />
        </mxCell>
        <mxCell id="__NF1TnNZCt_35xlNGTg-13" value="g" style="group" vertex="1" connectable="0" parent="1">
          <mxGeometry x="850" y="330" width="120" height="110" as="geometry" />
        </mxCell>
        <mxCell id="__NF1TnNZCt_35xlNGTg-14" value="Calibration Record created" style="rounded=0;whiteSpace=wrap;html=1;" vertex="1" parent="__NF1TnNZCt_35xlNGTg-13">
          <mxGeometry width="120" height="70" as="geometry" />
        </mxCell>
        <mxCell id="__NF1TnNZCt_35xlNGTg-15" value="&lt;span style=&quot;font-size: 10px;&quot;&gt;Gage Checkout&lt;/span&gt;" style="rounded=0;whiteSpace=wrap;html=1;" vertex="1" parent="__NF1TnNZCt_35xlNGTg-13">
          <mxGeometry y="70" width="120" height="20" as="geometry" />
        </mxCell>
        <mxCell id="__NF1TnNZCt_35xlNGTg-16" value="" style="rounded=0;whiteSpace=wrap;html=1;" vertex="1" parent="__NF1TnNZCt_35xlNGTg-13">
          <mxGeometry y="90" width="120" height="20" as="geometry" />
        </mxCell>
        <mxCell id="__NF1TnNZCt_35xlNGTg-18" value="&lt;span style=&quot;font-size: 11px;&quot;&gt;Writes to db&lt;/span&gt;" style="text;html=1;align=center;verticalAlign=middle;whiteSpace=wrap;rounded=0;" vertex="1" parent="1">
          <mxGeometry x="760" y="340" width="80" height="30" as="geometry" />
        </mxCell>
        <mxCell id="__NF1TnNZCt_35xlNGTg-19" style="edgeStyle=none;rounded=0;orthogonalLoop=1;jettySize=auto;html=1;" edge="1" parent="1">
          <mxGeometry relative="1" as="geometry">
            <mxPoint x="840" y="390" as="targetPoint" />
            <mxPoint x="760" y="390" as="sourcePoint" />
          </mxGeometry>
        </mxCell>
        <mxCell id="__NF1TnNZCt_35xlNGTg-20" style="edgeStyle=orthogonalEdgeStyle;rounded=0;orthogonalLoop=1;jettySize=auto;html=1;exitX=1;exitY=0.75;exitDx=0;exitDy=0;entryX=0;entryY=0.75;entryDx=0;entryDy=0;" edge="1" parent="1" source="RZVlUPDCcEAyYDzI6mfA-7" target="RZVlUPDCcEAyYDzI6mfA-12">
          <mxGeometry relative="1" as="geometry">
            <Array as="points">
              <mxPoint x="990" y="143" />
              <mxPoint x="990" y="240" />
              <mxPoint x="120" y="240" />
              <mxPoint x="120" y="383" />
            </Array>
          </mxGeometry>
        </mxCell>
        <mxCell id="__NF1TnNZCt_35xlNGTg-21" style="edgeStyle=orthogonalEdgeStyle;rounded=0;orthogonalLoop=1;jettySize=auto;html=1;exitX=1;exitY=0.75;exitDx=0;exitDy=0;entryX=0;entryY=0.75;entryDx=0;entryDy=0;" edge="1" parent="1" source="RZVlUPDCcEAyYDzI6mfA-7" target="__NF1TnNZCt_35xlNGTg-2">
          <mxGeometry relative="1" as="geometry">
            <Array as="points">
              <mxPoint x="990" y="143" />
              <mxPoint x="990" y="240" />
              <mxPoint x="120" y="240" />
              <mxPoint x="120" y="533" />
            </Array>
          </mxGeometry>
        </mxCell>
        <mxCell id="__NF1TnNZCt_35xlNGTg-22" value="&lt;span style=&quot;font-size: 11px;&quot;&gt;Pin is good&lt;/span&gt;" style="text;html=1;align=center;verticalAlign=middle;whiteSpace=wrap;rounded=0;" vertex="1" parent="1">
          <mxGeometry x="120" y="340" width="80" height="30" as="geometry" />
        </mxCell>
        <mxCell id="__NF1TnNZCt_35xlNGTg-23" value="&lt;span style=&quot;font-size: 11px;&quot;&gt;Pin is bad&lt;/span&gt;" style="text;html=1;align=center;verticalAlign=middle;whiteSpace=wrap;rounded=0;" vertex="1" parent="1">
          <mxGeometry x="120" y="490" width="80" height="30" as="geometry" />
        </mxCell>
        <mxCell id="__NF1TnNZCt_35xlNGTg-24" value="&lt;span style=&quot;font-size: 11px;&quot;&gt;Pin is Missing&lt;/span&gt;" style="text;html=1;align=center;verticalAlign=middle;whiteSpace=wrap;rounded=0;" vertex="1" parent="1">
          <mxGeometry x="120" y="650" width="80" height="30" as="geometry" />
        </mxCell>
        <mxCell id="__NF1TnNZCt_35xlNGTg-25" value="g" style="group" vertex="1" connectable="0" parent="1">
          <mxGeometry x="400" y="480" width="120" height="110" as="geometry" />
        </mxCell>
        <mxCell id="__NF1TnNZCt_35xlNGTg-26" value="Replace pin" style="rounded=0;whiteSpace=wrap;html=1;" vertex="1" parent="__NF1TnNZCt_35xlNGTg-25">
          <mxGeometry width="120" height="70" as="geometry" />
        </mxCell>
        <mxCell id="__NF1TnNZCt_35xlNGTg-27" value="&lt;span style=&quot;font-size: 10px;&quot;&gt;Metrology Cal Tech&lt;/span&gt;" style="rounded=0;whiteSpace=wrap;html=1;" vertex="1" parent="__NF1TnNZCt_35xlNGTg-25">
          <mxGeometry y="70" width="120" height="20" as="geometry" />
        </mxCell>
        <mxCell id="__NF1TnNZCt_35xlNGTg-28" value="" style="rounded=0;whiteSpace=wrap;html=1;" vertex="1" parent="__NF1TnNZCt_35xlNGTg-25">
          <mxGeometry y="90" width="120" height="20" as="geometry" />
        </mxCell>
        <mxCell id="__NF1TnNZCt_35xlNGTg-29" style="edgeStyle=orthogonalEdgeStyle;rounded=0;orthogonalLoop=1;jettySize=auto;html=1;exitX=1;exitY=0.75;exitDx=0;exitDy=0;entryX=0;entryY=0.75;entryDx=0;entryDy=0;" edge="1" parent="1" source="__NF1TnNZCt_35xlNGTg-2" target="__NF1TnNZCt_35xlNGTg-26">
          <mxGeometry relative="1" as="geometry" />
        </mxCell>
        <mxCell id="__NF1TnNZCt_35xlNGTg-30" value="&lt;span style=&quot;font-size: 11px;&quot;&gt;Pin is&amp;nbsp;&lt;/span&gt;&lt;div&gt;&lt;span style=&quot;font-size: 11px;&quot;&gt;discarded&lt;/span&gt;&lt;/div&gt;" style="text;html=1;align=center;verticalAlign=middle;whiteSpace=wrap;rounded=0;" vertex="1" parent="1">
          <mxGeometry x="320" y="500" width="80" height="30" as="geometry" />
        </mxCell>
        <mxCell id="__NF1TnNZCt_35xlNGTg-31" style="edgeStyle=orthogonalEdgeStyle;rounded=0;orthogonalLoop=1;jettySize=auto;html=1;exitX=1;exitY=0.5;exitDx=0;exitDy=0;entryX=0;entryY=0.5;entryDx=0;entryDy=0;" edge="1" parent="1" source="RZVlUPDCcEAyYDzI6mfA-12" target="__NF1TnNZCt_35xlNGTg-10">
          <mxGeometry relative="1" as="geometry" />
        </mxCell>
        <mxCell id="__NF1TnNZCt_35xlNGTg-32" style="edgeStyle=orthogonalEdgeStyle;rounded=0;orthogonalLoop=1;jettySize=auto;html=1;exitX=1;exitY=0.5;exitDx=0;exitDy=0;entryX=0;entryY=0.5;entryDx=0;entryDy=0;" edge="1" parent="1" source="__NF1TnNZCt_35xlNGTg-26" target="__NF1TnNZCt_35xlNGTg-10">
          <mxGeometry relative="1" as="geometry" />
        </mxCell>
        <mxCell id="__NF1TnNZCt_35xlNGTg-37" style="edgeStyle=orthogonalEdgeStyle;rounded=0;orthogonalLoop=1;jettySize=auto;html=1;exitX=1;exitY=0.75;exitDx=0;exitDy=0;entryX=0;entryY=0.75;entryDx=0;entryDy=0;" edge="1" parent="1" source="RZVlUPDCcEAyYDzI6mfA-7" target="__NF1TnNZCt_35xlNGTg-6">
          <mxGeometry relative="1" as="geometry">
            <Array as="points">
              <mxPoint x="990" y="143" />
              <mxPoint x="990" y="240" />
              <mxPoint x="120" y="240" />
              <mxPoint x="120" y="683" />
            </Array>
          </mxGeometry>
        </mxCell>
        <mxCell id="__NF1TnNZCt_35xlNGTg-38" value="g" style="group" vertex="1" connectable="0" parent="1">
          <mxGeometry x="400" y="630" width="120" height="110" as="geometry" />
        </mxCell>
        <mxCell id="__NF1TnNZCt_35xlNGTg-39" value="Saves Calibration" style="rounded=0;whiteSpace=wrap;html=1;" vertex="1" parent="__NF1TnNZCt_35xlNGTg-38">
          <mxGeometry width="120" height="70" as="geometry" />
        </mxCell>
        <mxCell id="__NF1TnNZCt_35xlNGTg-40" value="&lt;span style=&quot;font-size: 10px;&quot;&gt;Metrology Cal Tech&lt;/span&gt;" style="rounded=0;whiteSpace=wrap;html=1;" vertex="1" parent="__NF1TnNZCt_35xlNGTg-38">
          <mxGeometry y="70" width="120" height="20" as="geometry" />
        </mxCell>
        <mxCell id="__NF1TnNZCt_35xlNGTg-41" value="" style="rounded=0;whiteSpace=wrap;html=1;" vertex="1" parent="__NF1TnNZCt_35xlNGTg-38">
          <mxGeometry y="90" width="120" height="20" as="geometry" />
        </mxCell>
        <mxCell id="__NF1TnNZCt_35xlNGTg-42" value="g" style="group" vertex="1" connectable="0" parent="1">
          <mxGeometry x="820" y="620" width="120" height="110" as="geometry" />
        </mxCell>
        <mxCell id="__NF1TnNZCt_35xlNGTg-43" value="New Ticket is printed with missing pin removed from list" style="rounded=0;whiteSpace=wrap;html=1;" vertex="1" parent="__NF1TnNZCt_35xlNGTg-42">
          <mxGeometry width="120" height="70" as="geometry" />
        </mxCell>
        <mxCell id="__NF1TnNZCt_35xlNGTg-44" value="&lt;span style=&quot;font-size: 10px;&quot;&gt;Gage Checkout&lt;/span&gt;" style="rounded=0;whiteSpace=wrap;html=1;" vertex="1" parent="__NF1TnNZCt_35xlNGTg-42">
          <mxGeometry y="70" width="120" height="20" as="geometry" />
        </mxCell>
        <mxCell id="__NF1TnNZCt_35xlNGTg-45" value="" style="rounded=0;whiteSpace=wrap;html=1;" vertex="1" parent="__NF1TnNZCt_35xlNGTg-42">
          <mxGeometry y="90" width="120" height="20" as="geometry" />
        </mxCell>
        <mxCell id="__NF1TnNZCt_35xlNGTg-46" value="g" style="group" vertex="1" connectable="0" parent="1">
          <mxGeometry x="610" y="620" width="120" height="110" as="geometry" />
        </mxCell>
        <mxCell id="__NF1TnNZCt_35xlNGTg-47" value="Calibration Record created" style="rounded=0;whiteSpace=wrap;html=1;" vertex="1" parent="__NF1TnNZCt_35xlNGTg-46">
          <mxGeometry width="120" height="70" as="geometry" />
        </mxCell>
        <mxCell id="__NF1TnNZCt_35xlNGTg-48" value="&lt;span style=&quot;font-size: 10px;&quot;&gt;Gage Checkout&lt;/span&gt;" style="rounded=0;whiteSpace=wrap;html=1;" vertex="1" parent="__NF1TnNZCt_35xlNGTg-46">
          <mxGeometry y="70" width="120" height="20" as="geometry" />
        </mxCell>
        <mxCell id="__NF1TnNZCt_35xlNGTg-49" value="" style="rounded=0;whiteSpace=wrap;html=1;" vertex="1" parent="__NF1TnNZCt_35xlNGTg-46">
          <mxGeometry y="90" width="120" height="20" as="geometry" />
        </mxCell>
        <mxCell id="__NF1TnNZCt_35xlNGTg-50" value="&lt;span style=&quot;font-size: 11px;&quot;&gt;Writes to db&lt;/span&gt;" style="text;html=1;align=center;verticalAlign=middle;whiteSpace=wrap;rounded=0;" vertex="1" parent="1">
          <mxGeometry x="520" y="630" width="80" height="30" as="geometry" />
        </mxCell>
        <mxCell id="__NF1TnNZCt_35xlNGTg-51" style="edgeStyle=none;rounded=0;orthogonalLoop=1;jettySize=auto;html=1;" edge="1" parent="1">
          <mxGeometry relative="1" as="geometry">
            <mxPoint x="600" y="680" as="targetPoint" />
            <mxPoint x="520" y="680" as="sourcePoint" />
          </mxGeometry>
        </mxCell>
        <mxCell id="__NF1TnNZCt_35xlNGTg-52" style="edgeStyle=orthogonalEdgeStyle;rounded=0;orthogonalLoop=1;jettySize=auto;html=1;exitX=1;exitY=0.75;exitDx=0;exitDy=0;entryX=0;entryY=0.75;entryDx=0;entryDy=0;" edge="1" parent="1" source="__NF1TnNZCt_35xlNGTg-6" target="__NF1TnNZCt_35xlNGTg-39">
          <mxGeometry relative="1" as="geometry" />
        </mxCell>
        <mxCell id="__NF1TnNZCt_35xlNGTg-54" value="&lt;span style=&quot;font-size: 11px;&quot;&gt;Ticket is updated&lt;/span&gt;" style="text;html=1;align=center;verticalAlign=middle;whiteSpace=wrap;rounded=0;" vertex="1" parent="1">
          <mxGeometry x="730" y="639.5" width="80" height="30" as="geometry" />
        </mxCell>
        <mxCell id="__NF1TnNZCt_35xlNGTg-55" style="edgeStyle=none;rounded=0;orthogonalLoop=1;jettySize=auto;html=1;" edge="1" parent="1">
          <mxGeometry relative="1" as="geometry">
            <mxPoint x="810" y="689.5" as="targetPoint" />
            <mxPoint x="730" y="689.5" as="sourcePoint" />
          </mxGeometry>
        </mxCell>
      </root>
    </mxGraphModel>
  </diagram>
  <diagram id="egeqCD8AFRSY6EsqIU89" name="Bin Calibration">
    <mxGraphModel dx="1857" dy="873" grid="1" gridSize="10" guides="1" tooltips="1" connect="1" arrows="1" fold="1" page="1" pageScale="1" pageWidth="1100" pageHeight="850" math="0" shadow="0">
      <root>
        <mxCell id="0" />
        <mxCell id="1" parent="0" />
        <mxCell id="RzWRlB5oLIQ4pqwUtEq6-1" value="" style="group" vertex="1" connectable="0" parent="1">
          <mxGeometry x="200" y="90" width="120" height="110" as="geometry" />
        </mxCell>
        <mxCell id="RzWRlB5oLIQ4pqwUtEq6-2" value="Opens Gage Checkout Calibration Form" style="rounded=0;whiteSpace=wrap;html=1;" vertex="1" parent="RzWRlB5oLIQ4pqwUtEq6-1">
          <mxGeometry width="120" height="66" as="geometry" />
        </mxCell>
        <mxCell id="RzWRlB5oLIQ4pqwUtEq6-3" value="&lt;span style=&quot;font-size: 10px;&quot;&gt;Metrology Cal Tech&lt;/span&gt;" style="rounded=0;whiteSpace=wrap;html=1;" vertex="1" parent="RzWRlB5oLIQ4pqwUtEq6-1">
          <mxGeometry y="66" width="120" height="22" as="geometry" />
        </mxCell>
        <mxCell id="RzWRlB5oLIQ4pqwUtEq6-4" value="" style="rounded=0;whiteSpace=wrap;html=1;" vertex="1" parent="RzWRlB5oLIQ4pqwUtEq6-1">
          <mxGeometry y="88" width="120" height="22" as="geometry" />
        </mxCell>
        <mxCell id="RzWRlB5oLIQ4pqwUtEq6-5" value="Bin Calibration Process" style="text;strokeColor=none;fillColor=none;html=1;fontSize=24;fontStyle=1;verticalAlign=middle;align=center;" vertex="1" parent="1">
          <mxGeometry x="470" y="40" width="100" height="40" as="geometry" />
        </mxCell>
        <mxCell id="RzWRlB5oLIQ4pqwUtEq6-6" value="&lt;font style=&quot;font-size: 11px;&quot;&gt;Pin needs to&lt;/font&gt;&lt;div&gt;&lt;font style=&quot;font-size: 11px;&quot;&gt;be calibrated&lt;/font&gt;&lt;/div&gt;" style="text;html=1;align=center;verticalAlign=middle;whiteSpace=wrap;rounded=0;" vertex="1" parent="1">
          <mxGeometry x="90" y="110" width="80" height="30" as="geometry" />
        </mxCell>
        <mxCell id="RzWRlB5oLIQ4pqwUtEq6-7" style="edgeStyle=none;rounded=0;orthogonalLoop=1;jettySize=auto;html=1;" edge="1" parent="1">
          <mxGeometry relative="1" as="geometry">
            <mxPoint x="420" y="145" as="targetPoint" />
            <mxPoint x="320" y="144.5" as="sourcePoint" />
          </mxGeometry>
        </mxCell>
        <mxCell id="RzWRlB5oLIQ4pqwUtEq6-8" value="" style="group" vertex="1" connectable="0" parent="1">
          <mxGeometry x="430" y="90" width="120" height="110" as="geometry" />
        </mxCell>
        <mxCell id="RzWRlB5oLIQ4pqwUtEq6-9" value="Metrology User Searches by Ticket Number" style="rounded=0;whiteSpace=wrap;html=1;" vertex="1" parent="RzWRlB5oLIQ4pqwUtEq6-8">
          <mxGeometry width="120" height="66" as="geometry" />
        </mxCell>
        <mxCell id="RzWRlB5oLIQ4pqwUtEq6-10" value="&lt;span style=&quot;font-size: 10px;&quot;&gt;Metrology Cal Tech&lt;/span&gt;" style="rounded=0;whiteSpace=wrap;html=1;" vertex="1" parent="RzWRlB5oLIQ4pqwUtEq6-8">
          <mxGeometry y="66" width="120" height="22" as="geometry" />
        </mxCell>
        <mxCell id="RzWRlB5oLIQ4pqwUtEq6-11" value="" style="rounded=0;whiteSpace=wrap;html=1;" vertex="1" parent="RzWRlB5oLIQ4pqwUtEq6-8">
          <mxGeometry y="88" width="120" height="22" as="geometry" />
        </mxCell>
        <mxCell id="RzWRlB5oLIQ4pqwUtEq6-12" style="edgeStyle=none;rounded=0;orthogonalLoop=1;jettySize=auto;html=1;" edge="1" parent="1">
          <mxGeometry relative="1" as="geometry">
            <mxPoint x="630" y="144.5" as="targetPoint" />
            <mxPoint x="550" y="144.5" as="sourcePoint" />
          </mxGeometry>
        </mxCell>
        <mxCell id="RzWRlB5oLIQ4pqwUtEq6-13" value="&lt;span style=&quot;font-size: 11px;&quot;&gt;Ticket Is&lt;/span&gt;&lt;div&gt;&lt;span style=&quot;font-size: 11px;&quot;&gt;&amp;nbsp;Found&lt;/span&gt;&lt;/div&gt;" style="text;html=1;align=center;verticalAlign=middle;whiteSpace=wrap;rounded=0;" vertex="1" parent="1">
          <mxGeometry x="560" y="110" width="80" height="30" as="geometry" />
        </mxCell>
        <mxCell id="RzWRlB5oLIQ4pqwUtEq6-14" value="&lt;span style=&quot;font-size: 11px;&quot;&gt;Form is displayed&lt;/span&gt;" style="text;html=1;align=center;verticalAlign=middle;whiteSpace=wrap;rounded=0;" vertex="1" parent="1">
          <mxGeometry x="330" y="110" width="80" height="30" as="geometry" />
        </mxCell>
        <mxCell id="RzWRlB5oLIQ4pqwUtEq6-15" value="" style="endArrow=classic;html=1;rounded=0;" edge="1" parent="1">
          <mxGeometry width="50" height="50" relative="1" as="geometry">
            <mxPoint x="90" y="150" as="sourcePoint" />
            <mxPoint x="190" y="150" as="targetPoint" />
          </mxGeometry>
        </mxCell>
        <mxCell id="RzWRlB5oLIQ4pqwUtEq6-16" value="" style="group" vertex="1" connectable="0" parent="1">
          <mxGeometry x="640" y="90" width="120" height="110" as="geometry" />
        </mxCell>
        <mxCell id="RzWRlB5oLIQ4pqwUtEq6-17" value="Bin Ticket is displayed" style="rounded=0;whiteSpace=wrap;html=1;" vertex="1" parent="RzWRlB5oLIQ4pqwUtEq6-16">
          <mxGeometry width="120" height="70" as="geometry" />
        </mxCell>
        <mxCell id="RzWRlB5oLIQ4pqwUtEq6-18" value="&lt;font style=&quot;font-size: 10px;&quot;&gt;Gage Checkout&lt;/font&gt;" style="rounded=0;whiteSpace=wrap;html=1;" vertex="1" parent="RzWRlB5oLIQ4pqwUtEq6-16">
          <mxGeometry y="70" width="120" height="20" as="geometry" />
        </mxCell>
        <mxCell id="RzWRlB5oLIQ4pqwUtEq6-19" value="" style="rounded=0;whiteSpace=wrap;html=1;" vertex="1" parent="RzWRlB5oLIQ4pqwUtEq6-16">
          <mxGeometry y="90" width="120" height="20" as="geometry" />
        </mxCell>
        <mxCell id="RzWRlB5oLIQ4pqwUtEq6-20" style="edgeStyle=none;rounded=0;orthogonalLoop=1;jettySize=auto;html=1;" edge="1" parent="1">
          <mxGeometry relative="1" as="geometry">
            <mxPoint x="840" y="144.5" as="targetPoint" />
            <mxPoint x="760" y="144.5" as="sourcePoint" />
          </mxGeometry>
        </mxCell>
        <mxCell id="RzWRlB5oLIQ4pqwUtEq6-21" value="g" style="group" vertex="1" connectable="0" parent="1">
          <mxGeometry x="850" y="90" width="120" height="110" as="geometry" />
        </mxCell>
        <mxCell id="RzWRlB5oLIQ4pqwUtEq6-22" value="Measures each pin, replaces missing/bad pins" style="rounded=0;whiteSpace=wrap;html=1;" vertex="1" parent="RzWRlB5oLIQ4pqwUtEq6-21">
          <mxGeometry width="120" height="70" as="geometry" />
        </mxCell>
        <mxCell id="RzWRlB5oLIQ4pqwUtEq6-23" value="&lt;span style=&quot;font-size: 10px;&quot;&gt;Metrology Cal Tech&lt;/span&gt;" style="rounded=0;whiteSpace=wrap;html=1;" vertex="1" parent="RzWRlB5oLIQ4pqwUtEq6-21">
          <mxGeometry y="70" width="120" height="20" as="geometry" />
        </mxCell>
        <mxCell id="RzWRlB5oLIQ4pqwUtEq6-24" value="" style="rounded=0;whiteSpace=wrap;html=1;" vertex="1" parent="RzWRlB5oLIQ4pqwUtEq6-21">
          <mxGeometry y="90" width="120" height="20" as="geometry" />
        </mxCell>
        <mxCell id="RzWRlB5oLIQ4pqwUtEq6-25" value="&lt;span style=&quot;font-size: 11px;&quot;&gt;Cal Info ready&lt;/span&gt;&lt;div&gt;&lt;span style=&quot;font-size: 11px;&quot;&gt;to be entered&lt;/span&gt;&lt;/div&gt;" style="text;html=1;align=center;verticalAlign=middle;whiteSpace=wrap;rounded=0;" vertex="1" parent="1">
          <mxGeometry x="760" y="110" width="80" height="30" as="geometry" />
        </mxCell>
        <mxCell id="RzWRlB5oLIQ4pqwUtEq6-34" value="g" style="group" vertex="1" connectable="0" parent="1">
          <mxGeometry x="640" y="330" width="120" height="110" as="geometry" />
        </mxCell>
        <mxCell id="RzWRlB5oLIQ4pqwUtEq6-35" value="Saves Bin&amp;nbsp;&lt;div&gt;Calibration&lt;/div&gt;&lt;div&gt;Record&lt;/div&gt;" style="rounded=0;whiteSpace=wrap;html=1;" vertex="1" parent="RzWRlB5oLIQ4pqwUtEq6-34">
          <mxGeometry width="120" height="70" as="geometry" />
        </mxCell>
        <mxCell id="RzWRlB5oLIQ4pqwUtEq6-36" value="&lt;span style=&quot;font-size: 10px;&quot;&gt;Metrology Cal Tech&lt;/span&gt;" style="rounded=0;whiteSpace=wrap;html=1;" vertex="1" parent="RzWRlB5oLIQ4pqwUtEq6-34">
          <mxGeometry y="70" width="120" height="20" as="geometry" />
        </mxCell>
        <mxCell id="RzWRlB5oLIQ4pqwUtEq6-37" value="" style="rounded=0;whiteSpace=wrap;html=1;" vertex="1" parent="RzWRlB5oLIQ4pqwUtEq6-34">
          <mxGeometry y="90" width="120" height="20" as="geometry" />
        </mxCell>
        <mxCell id="RzWRlB5oLIQ4pqwUtEq6-38" value="g" style="group" vertex="1" connectable="0" parent="1">
          <mxGeometry x="850" y="330" width="120" height="110" as="geometry" />
        </mxCell>
        <mxCell id="RzWRlB5oLIQ4pqwUtEq6-39" value="Calibration Record created" style="rounded=0;whiteSpace=wrap;html=1;" vertex="1" parent="RzWRlB5oLIQ4pqwUtEq6-38">
          <mxGeometry width="120" height="70" as="geometry" />
        </mxCell>
        <mxCell id="RzWRlB5oLIQ4pqwUtEq6-40" value="&lt;span style=&quot;font-size: 10px;&quot;&gt;Gage Checkout&lt;/span&gt;" style="rounded=0;whiteSpace=wrap;html=1;" vertex="1" parent="RzWRlB5oLIQ4pqwUtEq6-38">
          <mxGeometry y="70" width="120" height="20" as="geometry" />
        </mxCell>
        <mxCell id="RzWRlB5oLIQ4pqwUtEq6-41" value="" style="rounded=0;whiteSpace=wrap;html=1;" vertex="1" parent="RzWRlB5oLIQ4pqwUtEq6-38">
          <mxGeometry y="90" width="120" height="20" as="geometry" />
        </mxCell>
        <mxCell id="RzWRlB5oLIQ4pqwUtEq6-42" value="&lt;span style=&quot;font-size: 11px;&quot;&gt;Writes to db&lt;/span&gt;" style="text;html=1;align=center;verticalAlign=middle;whiteSpace=wrap;rounded=0;" vertex="1" parent="1">
          <mxGeometry x="760" y="340" width="80" height="30" as="geometry" />
        </mxCell>
        <mxCell id="RzWRlB5oLIQ4pqwUtEq6-43" style="edgeStyle=none;rounded=0;orthogonalLoop=1;jettySize=auto;html=1;" edge="1" parent="1">
          <mxGeometry relative="1" as="geometry">
            <mxPoint x="840" y="390" as="targetPoint" />
            <mxPoint x="760" y="390" as="sourcePoint" />
          </mxGeometry>
        </mxCell>
        <mxCell id="RzWRlB5oLIQ4pqwUtEq6-45" style="edgeStyle=orthogonalEdgeStyle;rounded=0;orthogonalLoop=1;jettySize=auto;html=1;exitX=1;exitY=0.75;exitDx=0;exitDy=0;entryX=0;entryY=0.75;entryDx=0;entryDy=0;" edge="1" parent="1" source="RzWRlB5oLIQ4pqwUtEq6-22" target="RzWRlB5oLIQ4pqwUtEq6-49">
          <mxGeometry relative="1" as="geometry">
            <Array as="points">
              <mxPoint x="990" y="143" />
              <mxPoint x="990" y="240" />
              <mxPoint x="120" y="240" />
              <mxPoint x="120" y="453" />
            </Array>
            <mxPoint x="200" y="532.5" as="targetPoint" />
          </mxGeometry>
        </mxCell>
        <mxCell id="RzWRlB5oLIQ4pqwUtEq6-46" value="&lt;span style=&quot;font-size: 11px;&quot;&gt;Pin is good&lt;/span&gt;" style="text;html=1;align=center;verticalAlign=middle;whiteSpace=wrap;rounded=0;" vertex="1" parent="1">
          <mxGeometry x="130" y="330" width="80" height="30" as="geometry" />
        </mxCell>
        <mxCell id="RzWRlB5oLIQ4pqwUtEq6-47" value="&lt;span style=&quot;font-size: 11px;&quot;&gt;Pin is bad&lt;/span&gt;" style="text;html=1;align=center;verticalAlign=middle;whiteSpace=wrap;rounded=0;" vertex="1" parent="1">
          <mxGeometry x="120" y="420" width="80" height="30" as="geometry" />
        </mxCell>
        <mxCell id="RzWRlB5oLIQ4pqwUtEq6-48" value="g" style="group" vertex="1" connectable="0" parent="1">
          <mxGeometry x="200" y="400" width="120" height="110" as="geometry" />
        </mxCell>
        <mxCell id="RzWRlB5oLIQ4pqwUtEq6-49" value="Replace pin" style="rounded=0;whiteSpace=wrap;html=1;" vertex="1" parent="RzWRlB5oLIQ4pqwUtEq6-48">
          <mxGeometry width="120" height="70" as="geometry" />
        </mxCell>
        <mxCell id="RzWRlB5oLIQ4pqwUtEq6-50" value="&lt;span style=&quot;font-size: 10px;&quot;&gt;Metrology Cal Tech&lt;/span&gt;" style="rounded=0;whiteSpace=wrap;html=1;" vertex="1" parent="RzWRlB5oLIQ4pqwUtEq6-48">
          <mxGeometry y="70" width="120" height="20" as="geometry" />
        </mxCell>
        <mxCell id="RzWRlB5oLIQ4pqwUtEq6-51" value="" style="rounded=0;whiteSpace=wrap;html=1;" vertex="1" parent="RzWRlB5oLIQ4pqwUtEq6-48">
          <mxGeometry y="90" width="120" height="20" as="geometry" />
        </mxCell>
        <mxCell id="RzWRlB5oLIQ4pqwUtEq6-54" style="edgeStyle=orthogonalEdgeStyle;rounded=0;orthogonalLoop=1;jettySize=auto;html=1;entryX=0;entryY=0.5;entryDx=0;entryDy=0;" edge="1" parent="1" target="RzWRlB5oLIQ4pqwUtEq6-35">
          <mxGeometry relative="1" as="geometry">
            <mxPoint x="120" y="365" as="sourcePoint" />
          </mxGeometry>
        </mxCell>
        <mxCell id="RzWRlB5oLIQ4pqwUtEq6-55" style="edgeStyle=orthogonalEdgeStyle;rounded=0;orthogonalLoop=1;jettySize=auto;html=1;exitX=1;exitY=0.5;exitDx=0;exitDy=0;entryX=0;entryY=0.5;entryDx=0;entryDy=0;" edge="1" parent="1" source="RzWRlB5oLIQ4pqwUtEq6-49" target="RzWRlB5oLIQ4pqwUtEq6-35">
          <mxGeometry relative="1" as="geometry">
            <Array as="points">
              <mxPoint x="580" y="435" />
              <mxPoint x="580" y="365" />
            </Array>
          </mxGeometry>
        </mxCell>
        <mxCell id="RzWRlB5oLIQ4pqwUtEq6-60" value="&lt;span style=&quot;font-size: 11px;&quot;&gt;Pin is Missing&lt;/span&gt;" style="text;html=1;align=center;verticalAlign=middle;whiteSpace=wrap;rounded=0;" vertex="1" parent="1">
          <mxGeometry x="120" y="550" width="80" height="30" as="geometry" />
        </mxCell>
        <mxCell id="RzWRlB5oLIQ4pqwUtEq6-61" value="g" style="group" vertex="1" connectable="0" parent="1">
          <mxGeometry x="200" y="540" width="120" height="110" as="geometry" />
        </mxCell>
        <mxCell id="RzWRlB5oLIQ4pqwUtEq6-62" value="Replace pin" style="rounded=0;whiteSpace=wrap;html=1;" vertex="1" parent="RzWRlB5oLIQ4pqwUtEq6-61">
          <mxGeometry width="120" height="70" as="geometry" />
        </mxCell>
        <mxCell id="RzWRlB5oLIQ4pqwUtEq6-63" value="&lt;span style=&quot;font-size: 10px;&quot;&gt;Metrology Cal Tech&lt;/span&gt;" style="rounded=0;whiteSpace=wrap;html=1;" vertex="1" parent="RzWRlB5oLIQ4pqwUtEq6-61">
          <mxGeometry y="70" width="120" height="20" as="geometry" />
        </mxCell>
        <mxCell id="RzWRlB5oLIQ4pqwUtEq6-64" value="" style="rounded=0;whiteSpace=wrap;html=1;" vertex="1" parent="RzWRlB5oLIQ4pqwUtEq6-61">
          <mxGeometry y="90" width="120" height="20" as="geometry" />
        </mxCell>
        <mxCell id="RzWRlB5oLIQ4pqwUtEq6-67" style="edgeStyle=orthogonalEdgeStyle;rounded=0;orthogonalLoop=1;jettySize=auto;html=1;exitX=1;exitY=0.75;exitDx=0;exitDy=0;entryX=0.006;entryY=0.654;entryDx=0;entryDy=0;entryPerimeter=0;" edge="1" parent="1" source="RzWRlB5oLIQ4pqwUtEq6-22" target="RzWRlB5oLIQ4pqwUtEq6-62">
          <mxGeometry relative="1" as="geometry">
            <mxPoint x="60" y="710" as="targetPoint" />
            <Array as="points">
              <mxPoint x="990" y="143" />
              <mxPoint x="990" y="240" />
              <mxPoint x="120" y="240" />
              <mxPoint x="120" y="586" />
            </Array>
          </mxGeometry>
        </mxCell>
        <mxCell id="RzWRlB5oLIQ4pqwUtEq6-68" style="edgeStyle=orthogonalEdgeStyle;rounded=0;orthogonalLoop=1;jettySize=auto;html=1;exitX=1;exitY=0.5;exitDx=0;exitDy=0;entryX=0;entryY=0.5;entryDx=0;entryDy=0;" edge="1" parent="1" source="RzWRlB5oLIQ4pqwUtEq6-62" target="RzWRlB5oLIQ4pqwUtEq6-35">
          <mxGeometry relative="1" as="geometry">
            <Array as="points">
              <mxPoint x="580" y="575" />
              <mxPoint x="580" y="365" />
            </Array>
          </mxGeometry>
        </mxCell>
        <mxCell id="RzWRlB5oLIQ4pqwUtEq6-69" value="NOTE:&amp;nbsp;&lt;div&gt;&lt;br&gt;&lt;div&gt;Calibration is recorded at the bin level, not for individual pins within the bin. Any missing or bad pins are replaced, and the entire bin is marked as calibrated. This is different from the way pin tickets are done. For a pin ticket, if there is a is a missing pin, it is marked as such and a new ticket is printed with the missing pin removed from the ticket.&amp;nbsp;&lt;/div&gt;&lt;/div&gt;" style="text;html=1;align=center;verticalAlign=middle;whiteSpace=wrap;rounded=0;" vertex="1" parent="1">
          <mxGeometry x="710" y="480" width="220" height="140" as="geometry" />
        </mxCell>
      </root>
    </mxGraphModel>
  </diagram>
  <diagram id="FIV09UB3hGqD_vNeKMjH" name="Thread Gage Calibration">
    <mxGraphModel dx="1560" dy="656" grid="1" gridSize="10" guides="1" tooltips="1" connect="1" arrows="1" fold="1" page="1" pageScale="1" pageWidth="1100" pageHeight="850" math="0" shadow="0">
      <root>
        <mxCell id="0" />
        <mxCell id="1" parent="0" />
        <mxCell id="R1LSST-bXrQcuU5Y_AeH-1" value="" style="group" parent="1" vertex="1" connectable="0">
          <mxGeometry x="200" y="90" width="120" height="110" as="geometry" />
        </mxCell>
        <mxCell id="R1LSST-bXrQcuU5Y_AeH-2" value="Opens Gage Checkout Calibration Form" style="rounded=0;whiteSpace=wrap;html=1;" parent="R1LSST-bXrQcuU5Y_AeH-1" vertex="1">
          <mxGeometry width="120" height="66" as="geometry" />
        </mxCell>
        <mxCell id="R1LSST-bXrQcuU5Y_AeH-3" value="&lt;span style=&quot;font-size: 10px;&quot;&gt;Metrology Cal Tech&lt;/span&gt;" style="rounded=0;whiteSpace=wrap;html=1;" parent="R1LSST-bXrQcuU5Y_AeH-1" vertex="1">
          <mxGeometry y="66" width="120" height="22" as="geometry" />
        </mxCell>
        <mxCell id="R1LSST-bXrQcuU5Y_AeH-4" value="" style="rounded=0;whiteSpace=wrap;html=1;" parent="R1LSST-bXrQcuU5Y_AeH-1" vertex="1">
          <mxGeometry y="88" width="120" height="22" as="geometry" />
        </mxCell>
        <mxCell id="R1LSST-bXrQcuU5Y_AeH-5" value="Thread Gage Calibration Process" style="text;strokeColor=none;fillColor=none;html=1;fontSize=24;fontStyle=1;verticalAlign=middle;align=center;" parent="1" vertex="1">
          <mxGeometry x="470" y="40" width="100" height="40" as="geometry" />
        </mxCell>
        <mxCell id="R1LSST-bXrQcuU5Y_AeH-6" value="&lt;font style=&quot;font-size: 11px;&quot;&gt;Thread Gage needs to&lt;/font&gt;&lt;div&gt;&lt;font style=&quot;font-size: 11px;&quot;&gt;be calibrated&lt;/font&gt;&lt;/div&gt;" style="text;html=1;align=center;verticalAlign=middle;whiteSpace=wrap;rounded=0;" parent="1" vertex="1">
          <mxGeometry x="90" y="110" width="80" height="30" as="geometry" />
        </mxCell>
        <mxCell id="R1LSST-bXrQcuU5Y_AeH-7" style="edgeStyle=none;rounded=0;orthogonalLoop=1;jettySize=auto;html=1;" parent="1" edge="1">
          <mxGeometry relative="1" as="geometry">
            <mxPoint x="420" y="145" as="targetPoint" />
            <mxPoint x="320" y="144.5" as="sourcePoint" />
          </mxGeometry>
        </mxCell>
        <mxCell id="R1LSST-bXrQcuU5Y_AeH-8" value="" style="group" parent="1" vertex="1" connectable="0">
          <mxGeometry x="430" y="90" width="120" height="110" as="geometry" />
        </mxCell>
        <mxCell id="R1LSST-bXrQcuU5Y_AeH-9" value="Metrology User Searches by Ticket Number" style="rounded=0;whiteSpace=wrap;html=1;" parent="R1LSST-bXrQcuU5Y_AeH-8" vertex="1">
          <mxGeometry width="120" height="66" as="geometry" />
        </mxCell>
        <mxCell id="R1LSST-bXrQcuU5Y_AeH-10" value="&lt;span style=&quot;font-size: 10px;&quot;&gt;Metrology Cal Tech&lt;/span&gt;" style="rounded=0;whiteSpace=wrap;html=1;" parent="R1LSST-bXrQcuU5Y_AeH-8" vertex="1">
          <mxGeometry y="66" width="120" height="22" as="geometry" />
        </mxCell>
        <mxCell id="R1LSST-bXrQcuU5Y_AeH-11" value="" style="rounded=0;whiteSpace=wrap;html=1;" parent="R1LSST-bXrQcuU5Y_AeH-8" vertex="1">
          <mxGeometry y="88" width="120" height="22" as="geometry" />
        </mxCell>
        <mxCell id="R1LSST-bXrQcuU5Y_AeH-12" style="edgeStyle=none;rounded=0;orthogonalLoop=1;jettySize=auto;html=1;" parent="1" edge="1">
          <mxGeometry relative="1" as="geometry">
            <mxPoint x="630" y="144.5" as="targetPoint" />
            <mxPoint x="550" y="144.5" as="sourcePoint" />
          </mxGeometry>
        </mxCell>
        <mxCell id="R1LSST-bXrQcuU5Y_AeH-13" value="&lt;span style=&quot;font-size: 11px;&quot;&gt;Ticket Is&lt;/span&gt;&lt;div&gt;&lt;span style=&quot;font-size: 11px;&quot;&gt;&amp;nbsp;Found&lt;/span&gt;&lt;/div&gt;" style="text;html=1;align=center;verticalAlign=middle;whiteSpace=wrap;rounded=0;" parent="1" vertex="1">
          <mxGeometry x="560" y="110" width="80" height="30" as="geometry" />
        </mxCell>
        <mxCell id="R1LSST-bXrQcuU5Y_AeH-14" value="&lt;span style=&quot;font-size: 11px;&quot;&gt;Form is displayed&lt;/span&gt;" style="text;html=1;align=center;verticalAlign=middle;whiteSpace=wrap;rounded=0;" parent="1" vertex="1">
          <mxGeometry x="330" y="110" width="80" height="30" as="geometry" />
        </mxCell>
        <mxCell id="R1LSST-bXrQcuU5Y_AeH-15" value="" style="endArrow=classic;html=1;rounded=0;" parent="1" edge="1">
          <mxGeometry width="50" height="50" relative="1" as="geometry">
            <mxPoint x="90" y="150" as="sourcePoint" />
            <mxPoint x="190" y="150" as="targetPoint" />
          </mxGeometry>
        </mxCell>
        <mxCell id="R1LSST-bXrQcuU5Y_AeH-16" value="" style="group" parent="1" vertex="1" connectable="0">
          <mxGeometry x="640" y="90" width="120" height="110" as="geometry" />
        </mxCell>
        <mxCell id="R1LSST-bXrQcuU5Y_AeH-17" value="Thread Gage&amp;nbsp;&lt;div&gt;Ticket is displayed&lt;/div&gt;" style="rounded=0;whiteSpace=wrap;html=1;" parent="R1LSST-bXrQcuU5Y_AeH-16" vertex="1">
          <mxGeometry width="120" height="70" as="geometry" />
        </mxCell>
        <mxCell id="R1LSST-bXrQcuU5Y_AeH-18" value="&lt;font style=&quot;font-size: 10px;&quot;&gt;Gage Checkout&lt;/font&gt;" style="rounded=0;whiteSpace=wrap;html=1;" parent="R1LSST-bXrQcuU5Y_AeH-16" vertex="1">
          <mxGeometry y="70" width="120" height="20" as="geometry" />
        </mxCell>
        <mxCell id="R1LSST-bXrQcuU5Y_AeH-19" value="" style="rounded=0;whiteSpace=wrap;html=1;" parent="R1LSST-bXrQcuU5Y_AeH-16" vertex="1">
          <mxGeometry y="90" width="120" height="20" as="geometry" />
        </mxCell>
        <mxCell id="R1LSST-bXrQcuU5Y_AeH-20" style="edgeStyle=none;rounded=0;orthogonalLoop=1;jettySize=auto;html=1;" parent="1" edge="1">
          <mxGeometry relative="1" as="geometry">
            <mxPoint x="840" y="144.5" as="targetPoint" />
            <mxPoint x="760" y="144.5" as="sourcePoint" />
          </mxGeometry>
        </mxCell>
        <mxCell id="R1LSST-bXrQcuU5Y_AeH-21" value="g" style="group" parent="1" vertex="1" connectable="0">
          <mxGeometry x="850" y="90" width="120" height="110" as="geometry" />
        </mxCell>
        <mxCell id="R1LSST-bXrQcuU5Y_AeH-22" value="Measures thread gage,&lt;div&gt;records findings in form&lt;/div&gt;" style="rounded=0;whiteSpace=wrap;html=1;" parent="R1LSST-bXrQcuU5Y_AeH-21" vertex="1">
          <mxGeometry width="120" height="70" as="geometry" />
        </mxCell>
        <mxCell id="R1LSST-bXrQcuU5Y_AeH-23" value="&lt;span style=&quot;font-size: 10px;&quot;&gt;Metrology Cal Tech&lt;/span&gt;" style="rounded=0;whiteSpace=wrap;html=1;" parent="R1LSST-bXrQcuU5Y_AeH-21" vertex="1">
          <mxGeometry y="70" width="120" height="20" as="geometry" />
        </mxCell>
        <mxCell id="R1LSST-bXrQcuU5Y_AeH-24" value="" style="rounded=0;whiteSpace=wrap;html=1;" parent="R1LSST-bXrQcuU5Y_AeH-21" vertex="1">
          <mxGeometry y="90" width="120" height="20" as="geometry" />
        </mxCell>
        <mxCell id="R1LSST-bXrQcuU5Y_AeH-25" value="&lt;span style=&quot;font-size: 11px;&quot;&gt;Cal Info ready&lt;/span&gt;&lt;div&gt;&lt;span style=&quot;font-size: 11px;&quot;&gt;to be entered&lt;/span&gt;&lt;/div&gt;" style="text;html=1;align=center;verticalAlign=middle;whiteSpace=wrap;rounded=0;" parent="1" vertex="1">
          <mxGeometry x="760" y="110" width="80" height="30" as="geometry" />
        </mxCell>
        <mxCell id="R1LSST-bXrQcuU5Y_AeH-26" value="g" style="group" parent="1" vertex="1" connectable="0">
          <mxGeometry x="200" y="330" width="120" height="110" as="geometry" />
        </mxCell>
        <mxCell id="R1LSST-bXrQcuU5Y_AeH-27" value="Mark TG as Good" style="rounded=0;whiteSpace=wrap;html=1;" parent="R1LSST-bXrQcuU5Y_AeH-26" vertex="1">
          <mxGeometry width="120" height="70" as="geometry" />
        </mxCell>
        <mxCell id="R1LSST-bXrQcuU5Y_AeH-28" value="&lt;span style=&quot;font-size: 10px;&quot;&gt;Metrology Cal Tech&lt;/span&gt;" style="rounded=0;whiteSpace=wrap;html=1;" parent="R1LSST-bXrQcuU5Y_AeH-26" vertex="1">
          <mxGeometry y="70" width="120" height="20" as="geometry" />
        </mxCell>
        <mxCell id="R1LSST-bXrQcuU5Y_AeH-29" value="" style="rounded=0;whiteSpace=wrap;html=1;" parent="R1LSST-bXrQcuU5Y_AeH-26" vertex="1">
          <mxGeometry y="90" width="120" height="20" as="geometry" />
        </mxCell>
        <mxCell id="R1LSST-bXrQcuU5Y_AeH-30" value="g" style="group" parent="1" vertex="1" connectable="0">
          <mxGeometry x="200" y="480" width="120" height="110" as="geometry" />
        </mxCell>
        <mxCell id="R1LSST-bXrQcuU5Y_AeH-31" value="Mark TG as bad" style="rounded=0;whiteSpace=wrap;html=1;" parent="R1LSST-bXrQcuU5Y_AeH-30" vertex="1">
          <mxGeometry width="120" height="70" as="geometry" />
        </mxCell>
        <mxCell id="R1LSST-bXrQcuU5Y_AeH-32" value="&lt;span style=&quot;font-size: 10px;&quot;&gt;Metrology Cal Tech&lt;/span&gt;" style="rounded=0;whiteSpace=wrap;html=1;" parent="R1LSST-bXrQcuU5Y_AeH-30" vertex="1">
          <mxGeometry y="70" width="120" height="20" as="geometry" />
        </mxCell>
        <mxCell id="R1LSST-bXrQcuU5Y_AeH-33" value="" style="rounded=0;whiteSpace=wrap;html=1;" parent="R1LSST-bXrQcuU5Y_AeH-30" vertex="1">
          <mxGeometry y="90" width="120" height="20" as="geometry" />
        </mxCell>
        <mxCell id="R1LSST-bXrQcuU5Y_AeH-34" value="g" style="group" parent="1" vertex="1" connectable="0">
          <mxGeometry x="200" y="630" width="120" height="110" as="geometry" />
        </mxCell>
        <mxCell id="R1LSST-bXrQcuU5Y_AeH-35" value="Mark TG as missing" style="rounded=0;whiteSpace=wrap;html=1;" parent="R1LSST-bXrQcuU5Y_AeH-34" vertex="1">
          <mxGeometry width="120" height="70" as="geometry" />
        </mxCell>
        <mxCell id="R1LSST-bXrQcuU5Y_AeH-36" value="&lt;span style=&quot;font-size: 10px;&quot;&gt;Metrology Cal Tech&lt;/span&gt;" style="rounded=0;whiteSpace=wrap;html=1;" parent="R1LSST-bXrQcuU5Y_AeH-34" vertex="1">
          <mxGeometry y="70" width="120" height="20" as="geometry" />
        </mxCell>
        <mxCell id="R1LSST-bXrQcuU5Y_AeH-37" value="" style="rounded=0;whiteSpace=wrap;html=1;" parent="R1LSST-bXrQcuU5Y_AeH-34" vertex="1">
          <mxGeometry y="90" width="120" height="20" as="geometry" />
        </mxCell>
        <mxCell id="R1LSST-bXrQcuU5Y_AeH-38" value="g" style="group" parent="1" vertex="1" connectable="0">
          <mxGeometry x="640" y="330" width="120" height="110" as="geometry" />
        </mxCell>
        <mxCell id="R1LSST-bXrQcuU5Y_AeH-39" value="Saves Calibration" style="rounded=0;whiteSpace=wrap;html=1;" parent="R1LSST-bXrQcuU5Y_AeH-38" vertex="1">
          <mxGeometry width="120" height="70" as="geometry" />
        </mxCell>
        <mxCell id="R1LSST-bXrQcuU5Y_AeH-40" value="&lt;span style=&quot;font-size: 10px;&quot;&gt;Metrology Cal Tech&lt;/span&gt;" style="rounded=0;whiteSpace=wrap;html=1;" parent="R1LSST-bXrQcuU5Y_AeH-38" vertex="1">
          <mxGeometry y="70" width="120" height="20" as="geometry" />
        </mxCell>
        <mxCell id="R1LSST-bXrQcuU5Y_AeH-41" value="" style="rounded=0;whiteSpace=wrap;html=1;" parent="R1LSST-bXrQcuU5Y_AeH-38" vertex="1">
          <mxGeometry y="90" width="120" height="20" as="geometry" />
        </mxCell>
        <mxCell id="R1LSST-bXrQcuU5Y_AeH-42" value="g" style="group" parent="1" vertex="1" connectable="0">
          <mxGeometry x="850" y="330" width="120" height="110" as="geometry" />
        </mxCell>
        <mxCell id="R1LSST-bXrQcuU5Y_AeH-43" value="Calibration Record created" style="rounded=0;whiteSpace=wrap;html=1;" parent="R1LSST-bXrQcuU5Y_AeH-42" vertex="1">
          <mxGeometry width="120" height="70" as="geometry" />
        </mxCell>
        <mxCell id="R1LSST-bXrQcuU5Y_AeH-44" value="&lt;span style=&quot;font-size: 10px;&quot;&gt;Gage Checkout&lt;/span&gt;" style="rounded=0;whiteSpace=wrap;html=1;" parent="R1LSST-bXrQcuU5Y_AeH-42" vertex="1">
          <mxGeometry y="70" width="120" height="20" as="geometry" />
        </mxCell>
        <mxCell id="R1LSST-bXrQcuU5Y_AeH-45" value="" style="rounded=0;whiteSpace=wrap;html=1;" parent="R1LSST-bXrQcuU5Y_AeH-42" vertex="1">
          <mxGeometry y="90" width="120" height="20" as="geometry" />
        </mxCell>
        <mxCell id="R1LSST-bXrQcuU5Y_AeH-46" value="&lt;span style=&quot;font-size: 11px;&quot;&gt;Writes to db&lt;/span&gt;" style="text;html=1;align=center;verticalAlign=middle;whiteSpace=wrap;rounded=0;" parent="1" vertex="1">
          <mxGeometry x="760" y="340" width="80" height="30" as="geometry" />
        </mxCell>
        <mxCell id="R1LSST-bXrQcuU5Y_AeH-47" style="edgeStyle=none;rounded=0;orthogonalLoop=1;jettySize=auto;html=1;" parent="1" edge="1">
          <mxGeometry relative="1" as="geometry">
            <mxPoint x="840" y="390" as="targetPoint" />
            <mxPoint x="760" y="390" as="sourcePoint" />
          </mxGeometry>
        </mxCell>
        <mxCell id="R1LSST-bXrQcuU5Y_AeH-48" style="edgeStyle=orthogonalEdgeStyle;rounded=0;orthogonalLoop=1;jettySize=auto;html=1;exitX=1;exitY=0.75;exitDx=0;exitDy=0;entryX=0;entryY=0.75;entryDx=0;entryDy=0;" parent="1" source="R1LSST-bXrQcuU5Y_AeH-22" target="R1LSST-bXrQcuU5Y_AeH-27" edge="1">
          <mxGeometry relative="1" as="geometry">
            <Array as="points">
              <mxPoint x="990" y="143" />
              <mxPoint x="990" y="240" />
              <mxPoint x="120" y="240" />
              <mxPoint x="120" y="383" />
            </Array>
          </mxGeometry>
        </mxCell>
        <mxCell id="R1LSST-bXrQcuU5Y_AeH-49" style="edgeStyle=orthogonalEdgeStyle;rounded=0;orthogonalLoop=1;jettySize=auto;html=1;exitX=1;exitY=0.75;exitDx=0;exitDy=0;entryX=0;entryY=0.75;entryDx=0;entryDy=0;" parent="1" source="R1LSST-bXrQcuU5Y_AeH-22" target="R1LSST-bXrQcuU5Y_AeH-31" edge="1">
          <mxGeometry relative="1" as="geometry">
            <Array as="points">
              <mxPoint x="990" y="143" />
              <mxPoint x="990" y="240" />
              <mxPoint x="120" y="240" />
              <mxPoint x="120" y="533" />
            </Array>
          </mxGeometry>
        </mxCell>
        <mxCell id="R1LSST-bXrQcuU5Y_AeH-50" value="&lt;span style=&quot;font-size: 11px;&quot;&gt;TG is good&lt;/span&gt;" style="text;html=1;align=center;verticalAlign=middle;whiteSpace=wrap;rounded=0;" parent="1" vertex="1">
          <mxGeometry x="120" y="340" width="80" height="30" as="geometry" />
        </mxCell>
        <mxCell id="R1LSST-bXrQcuU5Y_AeH-51" value="&lt;span style=&quot;font-size: 11px;&quot;&gt;TG is bad&lt;/span&gt;" style="text;html=1;align=center;verticalAlign=middle;whiteSpace=wrap;rounded=0;" parent="1" vertex="1">
          <mxGeometry x="120" y="490" width="80" height="30" as="geometry" />
        </mxCell>
        <mxCell id="R1LSST-bXrQcuU5Y_AeH-52" value="&lt;span style=&quot;font-size: 11px;&quot;&gt;TG is Missing&lt;/span&gt;" style="text;html=1;align=center;verticalAlign=middle;whiteSpace=wrap;rounded=0;" parent="1" vertex="1">
          <mxGeometry x="120" y="650" width="80" height="30" as="geometry" />
        </mxCell>
        <mxCell id="R1LSST-bXrQcuU5Y_AeH-53" value="g" style="group" parent="1" vertex="1" connectable="0">
          <mxGeometry x="400" y="480" width="120" height="110" as="geometry" />
        </mxCell>
        <mxCell id="R1LSST-bXrQcuU5Y_AeH-54" value="Replace TG&lt;div&gt;&amp;nbsp;member&lt;/div&gt;" style="rounded=0;whiteSpace=wrap;html=1;" parent="R1LSST-bXrQcuU5Y_AeH-53" vertex="1">
          <mxGeometry width="120" height="70" as="geometry" />
        </mxCell>
        <mxCell id="R1LSST-bXrQcuU5Y_AeH-55" value="&lt;span style=&quot;font-size: 10px;&quot;&gt;Metrology Cal Tech&lt;/span&gt;" style="rounded=0;whiteSpace=wrap;html=1;" parent="R1LSST-bXrQcuU5Y_AeH-53" vertex="1">
          <mxGeometry y="70" width="120" height="20" as="geometry" />
        </mxCell>
        <mxCell id="R1LSST-bXrQcuU5Y_AeH-56" value="" style="rounded=0;whiteSpace=wrap;html=1;" parent="R1LSST-bXrQcuU5Y_AeH-53" vertex="1">
          <mxGeometry y="90" width="120" height="20" as="geometry" />
        </mxCell>
        <mxCell id="R1LSST-bXrQcuU5Y_AeH-57" style="edgeStyle=orthogonalEdgeStyle;rounded=0;orthogonalLoop=1;jettySize=auto;html=1;exitX=1;exitY=0.75;exitDx=0;exitDy=0;entryX=0;entryY=0.75;entryDx=0;entryDy=0;" parent="1" source="R1LSST-bXrQcuU5Y_AeH-31" target="R1LSST-bXrQcuU5Y_AeH-54" edge="1">
          <mxGeometry relative="1" as="geometry" />
        </mxCell>
        <mxCell id="R1LSST-bXrQcuU5Y_AeH-58" value="&lt;span style=&quot;font-size: 11px;&quot;&gt;TG member is&amp;nbsp;&lt;/span&gt;&lt;div&gt;&lt;span style=&quot;font-size: 11px;&quot;&gt;discarded&lt;/span&gt;&lt;/div&gt;" style="text;html=1;align=center;verticalAlign=middle;whiteSpace=wrap;rounded=0;" parent="1" vertex="1">
          <mxGeometry x="320" y="500" width="80" height="30" as="geometry" />
        </mxCell>
        <mxCell id="R1LSST-bXrQcuU5Y_AeH-59" style="edgeStyle=orthogonalEdgeStyle;rounded=0;orthogonalLoop=1;jettySize=auto;html=1;exitX=1;exitY=0.5;exitDx=0;exitDy=0;entryX=0;entryY=0.5;entryDx=0;entryDy=0;" parent="1" source="R1LSST-bXrQcuU5Y_AeH-27" target="R1LSST-bXrQcuU5Y_AeH-39" edge="1">
          <mxGeometry relative="1" as="geometry" />
        </mxCell>
        <mxCell id="R1LSST-bXrQcuU5Y_AeH-60" style="edgeStyle=orthogonalEdgeStyle;rounded=0;orthogonalLoop=1;jettySize=auto;html=1;exitX=1;exitY=0.5;exitDx=0;exitDy=0;entryX=0;entryY=0.5;entryDx=0;entryDy=0;" parent="1" source="R1LSST-bXrQcuU5Y_AeH-54" target="R1LSST-bXrQcuU5Y_AeH-39" edge="1">
          <mxGeometry relative="1" as="geometry" />
        </mxCell>
        <mxCell id="R1LSST-bXrQcuU5Y_AeH-61" style="edgeStyle=orthogonalEdgeStyle;rounded=0;orthogonalLoop=1;jettySize=auto;html=1;exitX=1;exitY=0.75;exitDx=0;exitDy=0;entryX=0;entryY=0.75;entryDx=0;entryDy=0;" parent="1" source="R1LSST-bXrQcuU5Y_AeH-22" target="R1LSST-bXrQcuU5Y_AeH-35" edge="1">
          <mxGeometry relative="1" as="geometry">
            <Array as="points">
              <mxPoint x="990" y="143" />
              <mxPoint x="990" y="240" />
              <mxPoint x="120" y="240" />
              <mxPoint x="120" y="683" />
            </Array>
          </mxGeometry>
        </mxCell>
        <mxCell id="R1LSST-bXrQcuU5Y_AeH-79" value="g" style="group" parent="1" vertex="1" connectable="0">
          <mxGeometry x="400" y="630" width="120" height="110" as="geometry" />
        </mxCell>
        <mxCell id="R1LSST-bXrQcuU5Y_AeH-80" value="TG listed as missing, Ticket is&amp;nbsp;&lt;div&gt;&quot;Checked In&quot;&lt;/div&gt;" style="rounded=0;whiteSpace=wrap;html=1;" parent="R1LSST-bXrQcuU5Y_AeH-79" vertex="1">
          <mxGeometry width="120" height="70" as="geometry" />
        </mxCell>
        <mxCell id="R1LSST-bXrQcuU5Y_AeH-81" value="&lt;span style=&quot;font-size: 10px;&quot;&gt;Gage Checkout&lt;/span&gt;" style="rounded=0;whiteSpace=wrap;html=1;" parent="R1LSST-bXrQcuU5Y_AeH-79" vertex="1">
          <mxGeometry y="70" width="120" height="20" as="geometry" />
        </mxCell>
        <mxCell id="R1LSST-bXrQcuU5Y_AeH-82" value="" style="rounded=0;whiteSpace=wrap;html=1;" parent="R1LSST-bXrQcuU5Y_AeH-79" vertex="1">
          <mxGeometry y="90" width="120" height="20" as="geometry" />
        </mxCell>
        <mxCell id="R1LSST-bXrQcuU5Y_AeH-83" style="edgeStyle=orthogonalEdgeStyle;rounded=0;orthogonalLoop=1;jettySize=auto;html=1;" parent="1" edge="1">
          <mxGeometry relative="1" as="geometry">
            <mxPoint x="321" y="693" as="sourcePoint" />
            <mxPoint x="400" y="693" as="targetPoint" />
            <Array as="points">
              <mxPoint x="321" y="693" />
              <mxPoint x="372" y="693" />
            </Array>
          </mxGeometry>
        </mxCell>
        <mxCell id="R1LSST-bXrQcuU5Y_AeH-84" value="&lt;span style=&quot;font-size: 11px;&quot;&gt;Writes to db&lt;/span&gt;" style="text;html=1;align=center;verticalAlign=middle;whiteSpace=wrap;rounded=0;" parent="1" vertex="1">
          <mxGeometry x="320" y="640" width="80" height="30" as="geometry" />
        </mxCell>
        <mxCell id="rvfe1x-Jit6-334k7kWJ-1" value="NOTE:&amp;nbsp;&lt;div&gt;&lt;br&gt;&lt;div&gt;Thread Gage tickets only have a single thread gage per ticket, so if the gage is missing, the ticket is automatically marked as &quot;Checked In&quot;&lt;/div&gt;&lt;/div&gt;" style="text;html=1;align=center;verticalAlign=middle;whiteSpace=wrap;rounded=0;" vertex="1" parent="1">
          <mxGeometry x="710" y="480" width="220" height="100" as="geometry" />
        </mxCell>
      </root>
    </mxGraphModel>
  </diagram>
</mxfile>
